<?xml version="1.0" encoding="UTF-8" standalone="no"?>
<svg width="177px" height="31px" viewBox="0 0 177 31" version="1.1" xmlns="http://www.w3.org/2000/svg" xmlns:xlink="http://www.w3.org/1999/xlink" xmlns:sketch="http://www.bohemiancoding.com/sketch/ns">
    <!-- Generator: Sketch 3.3.3 (12081) - http://www.bohemiancoding.com/sketch -->
    <title>Imported Layers</title>
    <desc>Created with Sketch.</desc>
    <defs></defs>
    <g id="Page-1" stroke="none" stroke-width="1" fill="none" fill-rule="evenodd" sketch:type="MSPage">
        <g id="Desktop-HD" sketch:type="MSArtboardGroup" transform="translate(-632.000000, -10.000000)">
            <g id="Imported-Layers" sketch:type="MSLayerGroup" transform="translate(632.000000, 10.000000)">
                <path d="M19.9095918,6.41510204 L19.794449,6.41510204 C17.9584898,6.33855102 15.0900408,6.10953061 11.8375714,6.10953061 C8.73883673,6.10953061 6.82759184,7.60195918 6.82759184,12.6138367 L6.82759184,17.3941633 C6.82759184,22.6736531 9.23736735,23.8972041 11.1106531,23.8972041 C12.1817347,23.8972041 13.1383061,23.8598776 14.0562857,23.7826939 L14.0562857,14.9837551 C14.0562857,14.5636735 14.3624898,14.2195102 14.7838367,14.2195102 L19.6793061,14.2195102 C20.1012857,14.2195102 20.4441837,14.5636735 20.4441837,14.9837551 L20.4441837,27.8373673 C20.4441837,28.3725918 20.2531224,28.6028776 19.6793061,28.7186531 C17.6143265,29.138102 14.9356735,29.5208571 11.1106531,29.5208571 C6.75104082,29.5208571 0.209408163,27.0345306 0.209408163,17.3562041 L0.209408163,12.6138367 C0.209408163,2.85769388 6.29046939,0.409326531 11.8375714,0.409326531 C15.6625918,0.409326531 18.4152653,0.984408163 19.8330408,1.28934694 C20.2145306,1.36653061 20.4827755,1.51836735 20.4827755,1.86253061 L20.4827755,5.91783673 C20.4827755,6.33855102 20.2531224,6.41510204 19.9095918,6.41510204" id="Fill-1" fill="#FFFFFF" sketch:type="MSShapeGroup"></path>
                <path d="M35.2697755,29.5208571 C28.9584286,29.5208571 23.9471837,26.1159184 23.9471837,17.2410612 L23.9471837,12.6897551 C23.9471837,3.81363265 28.9584286,0.409326531 35.2697755,0.409326531 C41.5823878,0.409326531 46.5936327,3.81363265 46.5936327,12.6897551 L46.5936327,17.2410612 C46.5936327,26.1159184 41.5823878,29.5208571 35.2697755,29.5208571 L35.2697755,29.5208571 Z M40.0134082,12.6897551 C40.0134082,8.09985714 38.4836531,6.14812245 35.2697755,6.14812245 C32.0571633,6.14812245 30.5653673,8.09985714 30.5653673,12.6897551 L30.5653673,17.2410612 C30.5653673,21.8315918 32.0571633,23.7826939 35.2697755,23.7826939 C38.4836531,23.7826939 40.0134082,21.8315918 40.0134082,17.2410612 L40.0134082,12.6897551 L40.0134082,12.6897551 Z" id="Fill-2" fill="#FFFFFF" sketch:type="MSShapeGroup"></path>
                <path d="M113.353082,29.5208571 C110.827531,29.5208571 107.844571,29.3285306 106.352143,29.0609184 C104.82302,28.7939388 104.247306,28.2960408 104.247306,26.5745918 L104.247306,3.317 C104.247306,1.59555102 104.785061,1.06032653 106.274959,0.830673469 C107.576327,0.639612245 110.675061,0.409326531 113.124694,0.409326531 C120.352755,0.409326531 125.211531,2.32183673 125.211531,8.40479592 L125.211531,9.09312245 C125.211531,11.5807143 124.025306,13.7209796 121.998918,14.7174082 C124.025306,15.7113061 125.403224,17.7383265 125.403224,20.3783878 L125.403224,20.9522041 C125.403224,27.6842653 119.971265,29.5208571 113.353082,29.5208571 L113.353082,29.5208571 Z M118.900184,8.8242449 C118.900184,6.72257143 117.56149,5.76536735 113.621327,5.76536735 C113.008286,5.76536735 111.248878,5.76536735 110.713653,5.80332653 L110.713653,12.4215102 L114.99798,12.4215102 C118.020163,12.4215102 118.900184,11.0435918 118.900184,9.39869388 L118.900184,8.8242449 L118.900184,8.8242449 Z M119.053286,20.3783878 C119.053286,18.5417959 118.058122,16.973449 114.99798,16.973449 L110.713653,16.973449 L110.713653,24.1268571 C111.325429,24.1268571 113.31449,24.1648163 113.849714,24.1648163 C117.79051,24.1648163 119.053286,22.9412653 119.053286,20.799102 L119.053286,20.3783878 L119.053286,20.3783878 Z" id="Fill-3" fill="#FFFFFF" sketch:type="MSShapeGroup"></path>
                <path d="M139.839102,29.5208571 C133.527755,29.5208571 128.514612,26.1159184 128.514612,17.2410612 L128.514612,12.6897551 C128.514612,3.81363265 133.527755,0.409326531 139.839102,0.409326531 C146.151082,0.409326531 151.161694,3.81363265 151.161694,12.6897551 L151.161694,17.2410612 C151.161694,26.1159184 146.151082,29.5208571 139.839102,29.5208571 L139.839102,29.5208571 Z M144.581469,12.6897551 C144.581469,8.09985714 143.050449,6.14812245 139.839102,6.14812245 C136.625224,6.14812245 135.134061,8.09985714 135.134061,12.6897551 L135.134061,17.2410612 C135.134061,21.8315918 136.625224,23.7826939 139.839102,23.7826939 C143.050449,23.7826939 144.581469,21.8315918 144.581469,17.2410612 L144.581469,12.6897551 L144.581469,12.6897551 Z" id="Fill-4" fill="#FFFFFF" sketch:type="MSShapeGroup"></path>
                <path d="M175.961061,29.1760612 L169.878102,29.1760612 C169.380837,29.1760612 169.149918,29.0235918 168.882939,28.6028776 L163.909653,20.5314898 L159.435531,28.4111837 C159.167286,28.8711224 158.899041,29.1760612 158.477694,29.1760612 L152.817347,29.1760612 C152.433959,29.1760612 152.244163,28.9464082 152.244163,28.6787959 C152.244163,28.6028776 152.282122,28.4877347 152.320714,28.4111837 L160.314918,14.6016327 L152.244163,1.48040816 C152.204306,1.4044898 152.166347,1.32793878 152.166347,1.25138776 C152.166347,0.984408163 152.433959,0.752857143 152.740796,0.752857143 L158.899041,0.752857143 C159.320388,0.752857143 159.626592,1.1362449 159.855612,1.48040816 L164.599245,9.20826531 L168.882939,1.48040816 C169.074633,1.1362449 169.419429,0.752857143 169.83951,0.752857143 L175.501122,0.752857143 C175.806694,0.752857143 176.075571,0.984408163 176.075571,1.25138776 C176.075571,1.32793878 176.037612,1.4044898 175.99902,1.48040816 L168.118061,14.9837551 L176.342551,28.4111837 C176.419102,28.5642857 176.457694,28.6787959 176.457694,28.7939388 C176.457694,29.0235918 176.264735,29.1760612 175.961061,29.1760612" id="Fill-5" fill="#FFFFFF" sketch:type="MSShapeGroup"></path>
                <path d="M81.7229592,16.5970204 L98.4313265,16.5970204 L98.4313265,20.4087551 L81.7229592,20.4087551 L81.7229592,16.5970204 Z" id="Fill-6" fill="#945D32" sketch:type="MSShapeGroup"></path>
                <path d="M90.0758776,23.995898 C88.2791429,23.995898 86.8151837,25.4573265 86.8151837,27.2565918 L93.339102,27.2565918 C93.339102,25.4573265 91.8751429,23.995898 90.0758776,23.995898" id="Fill-7" fill="#945D32" sketch:type="MSShapeGroup"></path>
                <path d="M77.206449,0.409326531 L55.302102,0.409326531 C53.7046531,0.409326531 52.4108776,1.70436735 52.4108776,3.30244898 L52.4108776,24.3647347 C52.4108776,25.961551 53.7046531,27.2565918 55.302102,27.2565918 L56.9406735,27.2565918 C56.9406735,24.599449 59.0954898,22.4446327 61.7532653,22.4446327 C64.4116735,22.4446327 66.5639592,24.599449 66.5639592,27.2565918 L77.206449,27.2565918 C78.8045306,27.2565918 80.0989388,25.961551 80.0989388,24.3647347 L80.0989388,3.30244898 C80.0989388,1.70436735 78.8045306,0.409326531 77.206449,0.409326531" id="Fill-8" fill="#945D32" sketch:type="MSShapeGroup"></path>
                <path d="M65.0158571,27.2565918 C65.0158571,29.0590204 63.5537959,30.518551 61.7532653,30.518551 C59.952102,30.518551 58.4913061,29.0590204 58.4913061,27.2565918 C58.4913061,25.4554286 59.952102,23.995898 61.7532653,23.995898 C63.5537959,23.995898 65.0158571,25.4554286 65.0158571,27.2565918" id="Fill-9" fill="#945D32" sketch:type="MSShapeGroup"></path>
                <path d="M93.339102,27.2565918 C93.339102,29.0590204 91.8776735,30.518551 90.0758776,30.518551 C88.2753469,30.518551 86.8151837,29.0590204 86.8151837,27.2565918 C86.8151837,25.4554286 88.2753469,23.995898 90.0758776,23.995898 C91.8776735,23.995898 93.339102,25.4554286 93.339102,27.2565918" id="Fill-10" fill="#945D32" sketch:type="MSShapeGroup"></path>
                <path d="M98.4313265,15.6202041 C98.4313265,13.610898 97.4823469,13.2022041 94.0932245,10.213551 C90.4516735,7.00030612 90.2378367,7.00030612 88.9788571,7.00030612 L83.871449,7.00030612 C82.6852245,7.00030612 81.7229592,7.96193878 81.7229592,9.14942857 L81.7229592,19.22 L81.9823469,19.22 C81.8165918,19.5825102 81.7229592,19.9842449 81.7229592,20.4093878 L81.7229592,24.3647347 C81.7229592,25.961551 83.018,27.2565918 84.6141837,27.2565918 L85.2430408,27.2565918 C85.2430408,24.599449 87.3984898,22.4446327 90.0562653,22.4446327 C92.7140408,22.4446327 94.8675918,24.599449 94.8675918,27.2565918 L95.5388367,27.2565918 C97.1362857,27.2565918 98.4313265,25.961551 98.4313265,24.3647347 L98.4313265,20.4093878 C98.4313265,19.9842449 98.3376939,19.5825102 98.1719388,19.22 L98.4313265,19.22 L98.4313265,15.6202041 L98.4313265,15.6202041 Z M95.5388367,16.3275102 L85.9003673,16.3275102 L85.9003673,9.89216327 L88.9788571,9.89216327 C89.0440204,9.89216327 89.1155102,9.89216327 89.1775102,9.89342857 C89.7620816,10.2477143 91.4386122,11.7287551 92.1800816,12.3822857 C92.7646531,12.897898 93.2714082,13.3325306 93.7186939,13.7159184 C94.5158367,14.3998163 95.339551,15.1077551 95.527449,15.390551 C95.5325102,15.4259796 95.5388367,15.4962041 95.5388367,15.6202041 L95.5388367,16.3275102 L95.5388367,16.3275102 Z" id="Fill-11" fill="#945D32" sketch:type="MSShapeGroup"></path>
            </g>
        </g>
    </g>
</svg>