<?xml version="1.0" encoding="UTF-8" standalone="no"?>
<svg width="47px" height="31px" viewBox="0 0 47 31" version="1.1" xmlns="http://www.w3.org/2000/svg" xmlns:xlink="http://www.w3.org/1999/xlink" xmlns:sketch="http://www.bohemiancoding.com/sketch/ns">
    <!-- Generator: Sketch 3.3.3 (12081) - http://www.bohemiancoding.com/sketch -->
    <title>Fill 8</title>
    <desc>Created with Sketch.</desc>
    <defs></defs>
    <g id="Page-1" stroke="none" stroke-width="1" fill="none" fill-rule="evenodd" sketch:type="MSPage">
        <path d="M24.7955714,0 L2.89122449,0 C1.29377551,0 0,1.29504082 0,2.89312245 L0,23.9554082 C0,25.5522245 1.29377551,26.8472653 2.89122449,26.8472653 L4.52979592,26.8472653 C4.52979592,24.1901224 6.68461224,22.0353061 9.34238776,22.0353061 C12.0007959,22.0353061 14.1530816,24.1901224 14.1530816,26.8472653 L24.7955714,26.8472653 C26.3936531,26.8472653 27.6880612,25.5522245 27.6880612,23.9554082 L27.6880612,2.89312245 C27.6880612,1.29504082 26.3936531,0 24.7955714,0 Z M12.524551,27.2606939 C12.524551,29.0631224 11.0624898,30.5226531 9.26195918,30.5226531 C7.46079592,30.5226531 6,29.0631224 6,27.2606939 C6,25.4595306 7.46079592,24 9.26195918,24 C11.0624898,24 12.524551,25.4595306 12.524551,27.2606939 Z M41.5239184,27.2606939 C41.5239184,29.0631224 40.0624898,30.5226531 38.2606939,30.5226531 C36.4601633,30.5226531 35,29.0631224 35,27.2606939 C35,25.4595306 36.4601633,24 38.2606939,24 C40.0624898,24 41.5239184,25.4595306 41.5239184,27.2606939 Z M46.7083673,15.619898 C46.7083673,13.6105918 45.7593878,13.201898 42.3702653,10.2132449 C38.7287143,7 38.5148776,7 37.255898,7 L32.1484898,7 C30.9622653,7 30,7.96163265 30,9.14912245 L30,19.2196939 L30.2593878,19.2196939 C30.0936327,19.5822041 30,19.9839388 30,20.4090816 L30,24.3644286 C30,25.9612449 31.2950408,27.2562857 32.8912245,27.2562857 L33.5200816,27.2562857 C33.5200816,24.5991429 35.6755306,22.4443265 38.3333061,22.4443265 C40.9910816,22.4443265 43.1446327,24.5991429 43.1446327,27.2562857 L43.8158776,27.2562857 C45.4133265,27.2562857 46.7083673,25.9612449 46.7083673,24.3644286 L46.7083673,20.4090816 C46.7083673,19.9839388 46.6147347,19.5822041 46.4489796,19.2196939 L46.7083673,19.2196939 L46.7083673,15.619898 Z M43.8158776,16.3272041 L34.1774082,16.3272041 L34.1774082,9.89185714 L37.255898,9.89185714 C37.3210612,9.89185714 37.392551,9.89185714 37.454551,9.89312245 C38.0391224,10.2474082 39.7156531,11.728449 40.4571224,12.3819796 C41.0416939,12.8975918 41.548449,13.3322245 41.9957347,13.7156122 C42.7928776,14.3995102 43.6165918,15.107449 43.8044898,15.3902449 C43.809551,15.4256735 43.8158776,15.495898 43.8158776,15.619898 L43.8158776,16.3272041 L43.8158776,16.3272041 Z" id="Fill-8" fill="#945D32" sketch:type="MSShapeGroup"></path>
    </g>
</svg>