<?xml version="1.0" encoding="UTF-8" standalone="no"?>
<svg width="148px" height="148px" viewBox="0 0 148 148" version="1.1" xmlns="http://www.w3.org/2000/svg" xmlns:xlink="http://www.w3.org/1999/xlink" xmlns:sketch="http://www.bohemiancoding.com/sketch/ns">
    <!-- Generator: Sketch 3.3.3 (12081) - http://www.bohemiancoding.com/sketch -->
    <title>Untitled 2</title>
    <desc>Created with Sketch.</desc>
    <defs></defs>
    <g id="Page-1" stroke="none" stroke-width="1" fill="none" fill-rule="evenodd" sketch:type="MSPage">
        <g id="Imported-Layers" sketch:type="MSLayerGroup">
            <path d="M85.0475785,15.1942475 C87.4281244,17.2112946 89.8012519,19.2342764 92.1884742,21.244647 C98.1965892,26.2883775 104.21509,31.3306244 110.227656,36.3802896 C110.401987,36.5219799 110.570383,36.6844416 110.817414,36.8988317 C97.0022362,53.3794196 83.1959604,69.8384943 69.3585276,86.3457883 C61.9565063,80.1418291 54.6093807,73.9794127 47.2644805,67.8155126 L47.3164089,67.6879171 C47.8193725,67.8414768 48.3230779,67.9950364 48.8267833,68.1649165 C52.1079158,69.2020006 55.3838555,70.2702418 58.6746319,71.2887802 C61.9030942,72.2954491 65.2621193,71.0306219 67.0536489,68.1745603 C68.8036357,65.3911985 68.5120948,61.8259435 66.2532098,59.3845672 C65.6953505,58.777005 65.0047029,58.2629139 64.2851237,57.8452613 C61.11675,56.0262839 57.9157356,54.2525584 54.733267,52.4669636 C54.509233,52.3445609 54.2941011,52.2050961 54.0166552,52.0366997 C54.3794121,51.5997594 54.7102701,51.1865578 55.0485465,50.7837418 C64.8222117,39.1302688 74.5951351,27.4797632 84.3680584,15.81813 C84.5245854,15.630446 84.6358606,15.4027029 84.7641979,15.1942475 L85.0475785,15.1942475 M76.465299,39.9114202 C71.2264661,39.9099366 66.9164095,43.5916595 66.2732393,48.6183279 C65.3466884,55.8519529 71.7739397,62.3430019 79.0468819,61.5217915 C84.2782965,60.9260986 88.1135791,56.7043204 88.1269322,51.525576 C88.1432525,45.2711721 82.7686639,39.9195804 76.465299,39.9114202" id="Fill-1" fill="#8A8B8A" sketch:type="MSShapeGroup"></path>
            <path d="M120.43381,113.009534 C118.713497,113.16161 117.051046,113.321104 115.391563,113.476148 C110.128992,113.968726 104.868646,114.456852 99.6053323,114.952398 C98.5860521,115.051803 97.5675138,115.173464 96.5452663,115.230585 C96.3152977,115.24468 95.9673775,115.117827 95.8531351,114.940528 C93.9221407,111.982094 91.0653373,111.088183 87.720407,111.108213 C85.2545503,111.126759 82.7886935,111.115631 80.3243204,111.105246 C77.1737506,111.091893 74.0239227,111.077798 70.8748367,111.12305 C67.0759039,111.187589 63.6189567,110.173502 60.5403448,108.049631 C58.3600942,106.554835 56.3437889,104.811524 54.3311928,103.086018 C51.1665283,100.367938 48.085691,97.5600955 44.9366049,94.8279202 C43.0100616,93.1565678 42.6443373,90.4125232 44.1547117,88.431826 C45.6658279,86.4526124 48.4180327,86.0549893 50.523358,87.5052751 C54.7584893,90.4362619 58.9876859,93.3665069 63.2346866,96.278206 C65.6137487,97.9013392 68.2880609,98.6275948 71.1470898,98.6416897 C76.5320641,98.6639447 81.9103618,98.6476244 87.2983034,98.6439152 C87.5712984,98.6439152 87.8598719,98.6209183 88.1239648,98.5422839 C88.74488,98.344956 89.0838982,97.893179 89.0779636,97.2351721 C89.0705452,96.6231589 88.5890948,96.0756853 87.9681796,95.9703448 C87.720407,95.9332531 87.4570559,95.9414133 87.2026068,95.9414133 C85.7552883,95.9391878 84.307228,95.9391878 82.8599095,95.9391878 C80.9519121,95.9391878 79.0439146,95.9391878 77.1351753,95.9332531 C75.1982462,95.9258348 73.5706621,94.6884554 73.0053844,92.8553832 C72.4452996,91.0675628 73.0061263,89.1402776 74.5521087,88.167733 C75.2494328,87.7285672 76.1448266,87.3858398 76.9497167,87.3754541 C84.123995,87.3205584 91.3071753,87.3146237 98.4777443,87.3569083 C101.313035,87.3732286 104.104557,87.7708518 106.680947,89.0876074 C109.344873,90.4503568 111.192782,92.6409931 112.727637,95.1357814 C114.954623,98.7729943 116.493187,102.721036 118.024333,106.67427 C118.759491,108.583009 119.502808,110.487298 120.240192,112.404197 C120.30844,112.568884 120.353692,112.741732 120.43381,113.009534" id="Fill-2" fill="#8A8B8A" sketch:type="MSShapeGroup"></path>
            <path d="M64.1182111,35.3194667 C63.067032,36.5776175 62.0729742,37.774196 61.0752073,38.9663235 C58.7540082,41.7296558 56.4290999,44.4907626 54.1257048,47.2689315 C53.8141344,47.6398486 53.4936621,47.8104705 53.001826,47.790441 C52.0708241,47.7555747 51.1405641,47.7696696 50.2028857,47.7830226 C48.9247054,47.8104705 47.8824284,48.5842035 47.5990477,49.7169843 C47.3023141,50.8794384 47.8067613,51.9921897 48.9573461,52.6494548 C53.6034535,55.2666457 58.2658813,57.855647 62.9008612,60.4839655 C65.8971294,62.1864749 65.9371884,66.3496482 62.9980415,68.0647688 C61.9372186,68.6819749 60.7836665,68.8258907 59.6301143,68.4601665 C54.3104215,66.7754611 48.9929541,65.0566313 43.6821633,63.3326087 C41.607995,62.6679253 39.9633486,61.3548788 38.5086118,59.7666118 C38.0308706,59.2324912 37.5301325,58.7080144 36.9982374,58.2184039 C36.1480955,57.4372525 35.1518122,57.2035747 34.0205151,57.5106941 C31.748277,58.1182563 29.4752971,58.6961451 27.2008335,59.2925798 C26.984218,59.3526683 26.760184,59.3875345 26.4901564,59.4483649 L26.4901564,37.8046112 C26.7431219,37.7845817 26.9916363,37.7497155 27.2312487,37.7638103 C28.4856903,37.8572814 29.6711413,37.5939303 30.8654943,37.2385917 C35.130299,35.989343 39.4210678,34.8283725 43.6740031,33.5472249 C46.779321,32.611772 49.8727695,32.7156288 53.001826,33.2831319 C56.5945289,33.940397 60.1931665,34.5694724 63.7895785,35.2141263 C63.8541181,35.2156099 63.912723,35.2541853 64.1182111,35.3194667" id="Fill-3" fill="#8A8B8A" sketch:type="MSShapeGroup"></path>
            <path d="M94.4837092,118.605189 C104.092687,117.712763 113.678668,116.827013 123.308418,115.92791 L123.308418,122.592548 L94.4837092,122.592548 L94.4837092,118.605189" id="Fill-4" fill="#8A8B8A" sketch:type="MSShapeGroup"></path>
            <path d="M23.1570955,64.0306746 L19.1816062,64.0306746 C18.292147,54.4706577 17.4034296,44.8898693 16.5065521,35.255669 L23.1570955,35.255669 L23.1570955,64.0306746" id="Fill-5" fill="#8A8B8A" sketch:type="MSShapeGroup"></path>
            <path d="M73.9400955,147.577523 C33.3558317,147.577523 0.341243719,114.561451 0.341243719,73.9801545 C0.341243719,33.3981162 33.3558317,0.379819095 73.9400955,0.379819095 C114.522134,0.379819095 147.538947,33.3981162 147.538947,73.9801545 C147.538947,114.561451 114.522134,147.577523 73.9400955,147.577523 M73.9400955,8.54073681 C37.8550559,8.54073681 8.50067776,37.8928894 8.50067776,73.9801545 C8.50067776,110.065194 37.8550559,139.415863 73.9400955,139.415863 C110.020684,139.415863 139.379513,110.065194 139.379513,73.9801545 C139.379513,37.8928894 110.020684,8.54073681 73.9400955,8.54073681" id="Fill-6" fill="#FBE61D" sketch:type="MSShapeGroup"></path>
            <path d="M30.2505138,129.179293 L13.6972261,111.140112 L114.576288,18.5465961 L131.13551,36.5872613 L30.2505138,129.179293" id="Fill-7" fill="#FBE61D" sketch:type="MSShapeGroup"></path>
            <path d="M95.6246501,114.605961 C95.6328103,114.61783 95.6417123,114.628958 95.6491307,114.640827 C95.6417123,114.628958 95.6328103,114.61783 95.6246501,114.605961 M95.5868166,114.554033 C95.5994278,114.571095 95.6120389,114.588157 95.6239083,114.605219 C95.6120389,114.588157 95.5994278,114.571095 95.5868166,114.554033 M70.4942758,111.126017 L70.5373021,111.126017 L70.4942758,111.126017 M70.7027312,111.125275 C70.6485773,111.126017 70.5944234,111.126017 70.5402695,111.126017 C70.5944234,111.126017 70.6485773,111.126017 70.7027312,111.125275 M70.8748367,111.12305 C70.8184573,111.124533 70.7628197,111.124533 70.7071822,111.125275 C70.7628197,111.124533 70.8184573,111.124533 70.8748367,111.12305 M84.8116753,111.117857 L84.8495088,111.117857 L84.8116753,111.117857 M87.720407,111.108213 C86.7716011,111.115631 85.8220534,111.117857 84.8732475,111.117857 C85.8220534,111.117857 86.7708593,111.115631 87.720407,111.108213 M87.7760446,111.108213 L87.720407,111.108213 L87.7760446,111.108213 M87.8316822,111.108213 L87.7760446,111.108213 L87.8316822,111.108213 L87.8316822,111.108213 L87.8442933,111.108213 L87.8316822,111.108213 M80.3243204,111.105246 C81.0787657,111.108213 81.8324692,111.11118 82.5869146,111.114148 C81.8324692,111.11118 81.0787657,111.108213 80.3243204,111.105246 M78.0402129,111.096344 C78.8020766,111.098569 79.5631985,111.102278 80.3243204,111.105246 C79.5631985,111.102278 78.8020766,111.098569 78.0402129,111.096344 M75.7308832,111.092634 C74.9378624,111.092634 74.1455835,111.094118 73.3533046,111.098569 C74.1455835,111.094118 74.9386043,111.092634 75.7308832,111.092634 M75.7561055,111.092634 L75.7561055,111.092634 L75.7857789,111.092634 L75.7561055,111.092634 M60.6434598,108.120105 C60.6968719,108.156455 60.7502839,108.192805 60.803696,108.228413 C60.7502839,108.192805 60.6968719,108.156455 60.6434598,108.120105 M56.5885942,105.006627 L33.9737795,125.762405 C44.8186533,134.151066 58.3630616,139.214084 73.0580546,139.409928 C58.3630616,139.214084 44.8320063,134.138455 33.9863907,125.752019 L56.5893361,105.007369 L56.5885942,105.006627 M77.4385854,98.6528172 L77.463066,98.6528172 L77.4385854,98.6528172 M74.3021106,98.6505917 L74.3740685,98.6505917 L74.3021106,98.6505917 M82.379201,98.6498499 C80.7501332,98.6513335 79.1218072,98.6528172 77.4934812,98.6528172 C79.122549,98.6528172 80.7501332,98.6513335 82.379201,98.6498499 M71.0766156,98.6409479 L71.0832921,98.6409479 L71.0766156,98.6409479 M71.0128178,98.640206 C71.0128178,98.640206 71.0135597,98.6409479 71.0150433,98.6409479 C71.0135597,98.6409479 71.0128178,98.640206 71.0128178,98.640206 M70.8755785,98.6379805 L70.8815132,98.6379805 L70.8755785,98.6379805 M70.8051043,98.6364969 L70.8221665,98.6364969 L70.8051043,98.6364969 M70.7413065,98.6350132 L70.7635616,98.6350132 L70.7413065,98.6350132 M64.9995101,97.2871005 L64.9935754,97.2922933 C66.7858467,98.1513373 68.7146156,98.5756665 70.7398229,98.6350132 C68.7168411,98.5756665 66.7902977,98.1446608 64.9995101,97.2871005 M87.7003775,95.9458643 C87.7908813,95.9503153 87.8806432,95.9569918 87.9681796,95.9703448 C87.8806432,95.9569918 87.7908813,95.9503153 87.7003775,95.9458643 M87.4281244,95.9406715 L87.4281244,95.9406715 L87.4622487,95.9406715 L87.4281244,95.9406715 M72.9215572,92.5534567 C72.9460377,92.6550879 72.9734856,92.7552356 73.0053844,92.8553832 C72.9734856,92.7552356 72.9460377,92.6536043 72.9215572,92.5534567 M73.1337217,89.8212814 L71.181956,91.6128109 L73.1337217,89.8220232 C73.1337217,89.8220232 73.1337217,89.8220232 73.1337217,89.8212814 M97.1787927,87.3494899 C97.6120239,87.3517155 98.0445132,87.353941 98.4777443,87.3569083 C101.313035,87.3732286 104.104557,87.7708518 106.680947,89.0876074 C109.344873,90.4503568 111.192782,92.6409931 112.727637,95.1357814 C114.954623,98.7729943 116.493187,102.721036 118.024333,106.67427 C118.759491,108.583009 119.502808,110.487298 120.240192,112.404197 C120.30844,112.568884 120.353692,112.741732 120.43381,113.009534 C120.353692,112.741732 120.30844,112.568884 120.240192,112.404197 C119.502808,110.487298 118.759491,108.583009 118.024333,106.67427 C116.493187,102.721036 114.954623,98.7729943 112.727637,95.1357814 C111.192782,92.6409931 109.344873,90.4503568 106.680947,89.0876074 C104.104557,87.7708518 101.313035,87.3732286 98.4777443,87.3569083 C98.0445132,87.353941 97.6120239,87.3517155 97.1787927,87.3494899 M83.0245967,87.3405879 C81.3050251,87.3472644 79.5847117,87.3569083 77.8651401,87.3695195 C79.5847117,87.3569083 81.3050251,87.3472644 83.0245967,87.3405879 M89.0779636,87.3294604 C87.0772368,87.3294604 85.0765101,87.3331696 83.0750415,87.3405879 C85.0765101,87.3331696 87.0772368,87.3294604 89.0779636,87.3294604 M89.1076369,87.3294604 L89.1076369,87.3294604 L89.1284083,87.3294604 L89.1076369,87.3294604 M81.7189686,81.9422607 L75.4252475,87.7189234 L75.4252475,87.7181815 L81.7189686,81.9422607 M139.37432,74.7561131 C139.185894,90.8487217 133.146622,105.549649 123.308418,116.860395 L123.308418,115.92791 C113.678668,116.827013 104.092687,117.712763 94.4837092,118.605189 C104.092687,117.712763 113.678668,116.827013 123.308418,115.92791 L123.308418,116.887843 C133.154783,105.574872 139.185894,90.8546564 139.37432,74.7561131 M139.376546,74.5699127 C139.375804,74.6277758 139.375062,74.6841552 139.375062,74.7420182 C139.375062,74.684897 139.375804,74.6270339 139.376546,74.5699127 M139.37803,74.3755521 C139.377288,74.4311897 139.377288,74.4875691 139.376546,74.5432067 C139.377288,74.4883109 139.377288,74.4304479 139.37803,74.3755521 M139.378771,74.1782242 C139.378771,74.2353455 139.378771,74.2917249 139.37803,74.3488461 C139.378771,74.2917249 139.378771,74.2353455 139.378771,74.1782242 M139.379513,73.9801545 C139.379513,74.0402431 139.378771,74.0995898 139.378771,74.1596784 C139.378771,74.1003317 139.379513,74.0402431 139.379513,73.9801545 M147.538947,73.8636866 L147.538947,73.9801545 L147.538947,73.8636866 M139.378771,73.8451407 C139.378771,73.8911344 139.379513,73.9349026 139.379513,73.9801545 C139.379513,73.9363863 139.378771,73.8889089 139.378771,73.8451407 M147.538205,73.7487023 L147.538205,73.8176928 L147.538205,73.7487023 M139.378771,73.6900974 L139.378771,73.808049 L139.378771,73.6900974 M147.538205,73.6300088 L147.538205,73.6997412 L147.538205,73.6300088 M139.377288,73.5313448 C139.37803,73.5780804 139.37803,73.6240741 139.378771,73.6708097 C139.37803,73.6240741 139.37803,73.5780804 139.377288,73.5313448 M147.537464,73.5157663 L147.537464,73.5862406 L147.537464,73.5157663 M147.536722,73.4015239 L147.536722,73.4549359 L147.536722,73.4015239 M139.376546,73.3814943 C139.376546,73.4237789 139.377288,73.4660634 139.377288,73.508348 C139.377288,73.4660634 139.376546,73.4237789 139.376546,73.3814943 M147.535238,73.2850559 C147.535238,73.3043436 147.53598,73.3184384 147.53598,73.3377261 C147.53598,73.3206639 147.535238,73.3021181 147.535238,73.2850559 M139.375062,73.2182908 C139.375062,73.2679937 139.375804,73.3162129 139.376546,73.365174 C139.375804,73.3169548 139.375062,73.2665101 139.375062,73.2182908 M147.534496,73.1700716 L147.534496,73.2212582 L147.534496,73.1700716 M147.533013,73.0580546 C147.533013,73.0706658 147.533754,73.087728 147.533754,73.1003392 C147.533754,73.0869862 147.533013,73.0721495 147.533013,73.0580546 M147.531529,72.9475214 L147.531529,72.9742274 L147.531529,72.9475214 M147.530045,72.8332789 L147.530045,72.8599849 L147.530045,72.8332789 M147.52782,72.7205201 C147.52782,72.7279384 147.528562,72.7346149 147.528562,72.7420333 C147.528562,72.7346149 147.52782,72.7279384 147.52782,72.7205201 M147.525594,72.6070195 C147.526336,72.6144378 147.526336,72.6203725 147.526336,72.627049 C147.526336,72.6203725 147.526336,72.6144378 147.525594,72.6070195 M147.524111,72.497228 L147.524111,72.5090974 L147.524111,72.497228 M147.521143,72.3866947 C147.521885,72.3896621 147.521885,72.3911457 147.521885,72.3933712 C147.521885,72.3911457 147.521885,72.3896621 147.521143,72.3866947 M128.95971,38.5850207 L128.944874,38.5983737 C135.408475,48.6064585 139.228179,60.4743216 139.375062,73.2168072 C139.228179,60.4743216 135.42257,48.595331 128.95971,38.5850207" id="Fill-8" fill="#CBCCCB" sketch:type="MSShapeGroup"></path>
            <path d="M89.1076369,87.3294604 L89.0779636,87.3294604 C87.0772368,87.3294604 85.0765101,87.3331696 83.0750415,87.3405879 L83.0245967,87.3405879 C81.3050251,87.3472644 79.5847117,87.3569083 77.8651401,87.3695195 C77.5602462,87.3710031 77.2553524,87.3732286 76.9497167,87.3754541 C76.4460113,87.3836143 75.9096652,87.5275302 75.4059598,87.7367274 L75.4252475,87.7181815 L75.4252475,87.7189234 L73.1337217,89.8212814 L73.1337217,89.8220232 L73.1544931,89.8027356 C72.7843178,90.6358153 72.6930722,91.6039089 72.9215572,92.5534567 C72.9460377,92.6536043 72.9734856,92.7552356 73.0053844,92.8553832 C73.5706621,94.6884554 75.1982462,95.9258348 77.1351753,95.9332531 C79.0439146,95.9391878 80.9519121,95.9391878 82.8599095,95.9391878 C84.307228,95.9391878 85.7552883,95.9391878 87.2026068,95.9414133 C87.277532,95.9414133 87.3524573,95.9406715 87.4281244,95.9406715 L87.4622487,95.9406715 C87.541625,95.9406715 87.6217431,95.9421552 87.7003775,95.9458643 C87.7908813,95.9503153 87.8806432,95.9569918 87.9681796,95.9703448 C88.5890948,96.0756853 89.0705452,96.6231589 89.0779636,97.2351721 C89.0838982,97.893179 88.74488,98.344956 88.1239648,98.5422839 C87.8598719,98.6209183 87.5712984,98.6439152 87.2983034,98.6439152 C85.658108,98.6453989 84.0186545,98.6476244 82.379201,98.6498499 C80.7501332,98.6513335 79.122549,98.6528172 77.4934812,98.6528172 L77.463066,98.6528172 L77.4385854,98.6528172 C76.4170798,98.6528172 75.3955741,98.6520754 74.3740685,98.6505917 L74.3021106,98.6505917 C73.2501897,98.649108 72.1997525,98.6461407 71.1470898,98.6416897 C71.1263185,98.6416897 71.1048053,98.6416897 71.0832921,98.6409479 L71.0766156,98.6409479 L71.0150433,98.6409479 C71.0135597,98.6409479 71.0128178,98.640206 71.0128178,98.640206 C70.9690496,98.6394642 70.9252814,98.6394642 70.8815132,98.6379805 L70.8755785,98.6379805 C70.8577745,98.6379805 70.8399705,98.6372387 70.8221665,98.6364969 L70.8051043,98.6364969 C70.7910094,98.6364969 70.7769146,98.635755 70.7635616,98.6350132 L70.7413065,98.6350132 L70.7405647,98.6350132 C68.7146156,98.5756665 66.7858467,98.1513373 64.9935754,97.2922933 L56.5885942,105.006627 L56.5893361,105.007369 L56.5937871,105.002918 C57.8712255,106.070417 59.1731445,107.110469 60.5403448,108.049631 C60.5752111,108.073369 60.6093354,108.097108 60.6434598,108.120105 C60.6968719,108.156455 60.7502839,108.192805 60.803696,108.228413 C63.7116859,110.160891 66.9520176,111.118599 70.4942758,111.126017 L70.5373021,111.126017 L70.5402695,111.126017 C70.5944234,111.126017 70.6485773,111.126017 70.7027312,111.125275 L70.7071822,111.125275 C70.7628197,111.124533 70.8184573,111.124533 70.8748367,111.12305 C71.7004981,111.11118 72.5269014,111.103762 73.3533046,111.098569 C74.1455835,111.094118 74.9378624,111.092634 75.7308832,111.092634 L75.7561055,111.092634 L75.7857789,111.092634 C76.5372569,111.092634 77.2887349,111.094118 78.0402129,111.096344 C78.8020766,111.098569 79.5631985,111.102278 80.3243204,111.105246 C81.0787657,111.108213 81.8324692,111.11118 82.5869146,111.114148 C83.3280069,111.116373 84.0705829,111.117857 84.8116753,111.117857 L84.8495088,111.117857 L84.8732475,111.117857 C85.8220534,111.117857 86.7716011,111.115631 87.720407,111.108213 L87.7760446,111.108213 L87.8316822,111.108213 L87.8442933,111.108213 C90.9859611,111.109697 93.6884629,111.938325 95.5868166,114.554033 C95.5994278,114.571095 95.6120389,114.588157 95.6239083,114.605219 L95.6246501,114.605961 C95.6328103,114.61783 95.6417123,114.628958 95.6491307,114.640827 C95.7181212,114.738008 95.78637,114.838155 95.8531351,114.940528 C95.8664881,114.9613 95.8835503,114.981329 95.9028379,115.001359 C96.0400773,115.137856 96.3101049,115.232069 96.511142,115.232069 C96.5230113,115.232069 96.5341388,115.231327 96.5452663,115.230585 C97.5675138,115.173464 98.5860521,115.051803 99.6053323,114.952398 C104.868646,114.456852 110.128992,113.968726 115.391563,113.476148 C117.051046,113.321104 118.713497,113.16161 120.43381,113.009534 C120.353692,112.741732 120.30844,112.568884 120.240192,112.404197 C119.502808,110.487298 118.759491,108.583009 118.024333,106.67427 C116.493187,102.721036 114.954623,98.7729943 112.727637,95.1357814 C111.192782,92.6409931 109.344873,90.4503568 106.680947,89.0876074 C104.104557,87.7708518 101.313035,87.3732286 98.4777443,87.3569083 C98.0445132,87.353941 97.6120239,87.3517155 97.1787927,87.3494899 C94.497804,87.3361369 91.8131062,87.3294604 89.1284083,87.3294604 L89.1076369,87.3294604" id="Fill-9" fill="#777776" sketch:type="MSShapeGroup"></path>
            <path d="M73.7702155,147.576781 C73.7865358,147.576781 73.8006307,147.577523 73.816951,147.577523 C73.8021143,147.577523 73.7850521,147.576781 73.7702155,147.576781 M73.64262,147.576781 L73.6908392,147.576781 L73.64262,147.576781 M73.5157663,147.576781 L73.5676947,147.576781 L73.5157663,147.576781 M73.39188,147.576039 L73.4415829,147.576039 L73.39188,147.576039 M73.2679937,147.574555 C73.2843141,147.575297 73.2998926,147.575297 73.3154711,147.575297 C73.2984089,147.575297 73.2850559,147.575297 73.2679937,147.574555 M73.1433656,147.573813 C73.1589441,147.573813 73.1737808,147.573813 73.1901011,147.574555 C73.1752644,147.574555 73.1582023,147.573813 73.1433656,147.573813 M73.0231884,147.57233 C73.0350578,147.57233 73.047669,147.573072 73.0595383,147.573072 C73.047669,147.573072 73.0350578,147.57233 73.0231884,147.57233 M72.8978185,147.570846 L72.9289755,147.570846 L72.8978185,147.570846 M72.7754158,147.568621 C72.7813505,147.568621 72.7865433,147.568621 72.7932198,147.569362 C72.7887688,147.568621 72.7798668,147.568621 72.7754158,147.568621 M72.6500459,147.567137 L72.6515295,147.567137 L72.6500459,147.567137 M74.1248122,139.415863 L73.9400955,139.415863 L73.7798593,139.415863 L73.9400955,139.415863 L74.1248122,139.415863 M73.5988518,139.415121 C73.651522,139.415121 73.700483,139.415863 73.7531533,139.415863 C73.7019667,139.415863 73.6500383,139.415121 73.5988518,139.415121 M74.3176891,139.414379 C74.259826,139.415121 74.2004793,139.415863 74.1418744,139.415863 C74.1989956,139.415863 74.259826,139.415121 74.3176891,139.414379 M74.5142751,139.413638 C74.4564121,139.413638 74.4000327,139.414379 74.3429114,139.414379 C74.4000327,139.414379 74.4571539,139.413638 74.5142751,139.413638 M73.2464805,139.412154 C73.3547883,139.413638 73.4638379,139.414379 73.5721457,139.415121 C73.4638379,139.414379 73.3547883,139.413638 73.2464805,139.412154 M74.7138285,139.411412 C74.6567073,139.412154 74.5995861,139.412896 74.5424648,139.412896 C74.5995861,139.412896 74.6567073,139.412154 74.7138285,139.411412 M73.0617638,139.409928 C73.1166595,139.41067 73.1737808,139.411412 73.2286765,139.412154 C73.1737808,139.411412 73.1166595,139.41067 73.0617638,139.409928 M74.9148656,139.408445 C74.8570025,139.409928 74.7983976,139.409928 74.7397927,139.411412 C74.7991394,139.409928 74.8555188,139.409928 74.9148656,139.408445 M75.1151608,139.405477 C75.0550722,139.406219 74.9942418,139.406961 74.9341533,139.408445 C74.9935,139.406961 75.0558141,139.406219 75.1151608,139.405477 M75.9007632,139.386932 C75.6433467,139.39435 75.3851884,139.400285 75.1270302,139.405477 C75.3859303,139.400285 75.6433467,139.39435 75.9007632,139.386932 M117.700893,122.592548 L117.691991,122.592548 C106.542965,132.635499 91.9399598,138.911416 75.9029887,139.386932 C91.943669,138.912158 106.551867,132.638466 117.700893,122.592548" id="Fill-10" fill="#CBCCCB" sketch:type="MSShapeGroup"></path>
            <path d="M123.308418,115.92791 C113.678668,116.827013 104.092687,117.712763 94.4837092,118.605189 L94.4837092,122.592548 L117.691991,122.592548 L117.700893,122.592548 C119.683074,120.806953 121.556205,118.900439 123.308418,116.887843 L123.308418,115.92791" id="Fill-11" fill="#777776" sketch:type="MSShapeGroup"></path>
            <path d="M127.617732,23.7023436 L123.079933,27.8106212 L131.13551,36.5872613 L128.95971,38.5850207 C135.42257,48.595331 139.228179,60.4743216 139.375062,73.2168072 L139.375062,73.2182908 C139.375062,73.2665101 139.375804,73.3169548 139.376546,73.365174 L139.376546,73.3814943 C139.376546,73.4237789 139.377288,73.4660634 139.377288,73.508348 L139.377288,73.5313448 C139.37803,73.5780804 139.37803,73.6240741 139.378771,73.6708097 L139.378771,73.6900974 L139.378771,73.808049 L139.378771,73.8451407 C139.378771,73.8889089 139.379513,73.9363863 139.379513,73.9801545 C139.379513,74.0402431 139.378771,74.1003317 139.378771,74.1596784 L139.378771,74.1782242 C139.378771,74.2353455 139.378771,74.2917249 139.37803,74.3488461 L139.37803,74.3755521 C139.377288,74.4304479 139.377288,74.4883109 139.376546,74.5432067 L139.376546,74.5699127 C139.375804,74.6270339 139.375062,74.684897 139.375062,74.7420182 C139.375062,74.7472111 139.375062,74.7516621 139.37432,74.7561131 C139.185894,90.8546564 133.154783,105.574872 123.308418,116.887843 C121.556205,118.900439 119.683074,120.806953 117.700893,122.592548 C106.551867,132.638466 91.943669,138.912158 75.9029887,139.386932 L75.9007632,139.386932 C75.6433467,139.39435 75.3859303,139.400285 75.1270302,139.405477 L75.1151608,139.405477 C75.0558141,139.406219 74.9935,139.406961 74.9341533,139.408445 L74.9148656,139.408445 C74.8555188,139.409928 74.7991394,139.409928 74.7397927,139.411412 L74.7138285,139.411412 C74.6567073,139.412154 74.5995861,139.412896 74.5424648,139.412896 C74.5335628,139.412896 74.5231771,139.412896 74.5142751,139.413638 C74.4571539,139.413638 74.4000327,139.414379 74.3429114,139.414379 L74.3176891,139.414379 C74.259826,139.415121 74.1989956,139.415863 74.1418744,139.415863 L74.1248122,139.415863 L73.9400955,139.415863 L73.7798593,139.415863 L73.7531533,139.415863 C73.700483,139.415863 73.651522,139.415121 73.5988518,139.415121 L73.5721457,139.415121 C73.4638379,139.414379 73.3547883,139.413638 73.2464805,139.412154 L73.2286765,139.412154 C73.1737808,139.411412 73.1166595,139.41067 73.0617638,139.409928 L73.0580546,139.409928 C58.3630616,139.214084 44.8186533,134.151066 33.9737795,125.762405 L30.2505138,129.179293 L21.5614102,119.710522 L18.5859133,122.404864 C31.8217186,137.516026 51.1160835,147.194736 72.6500459,147.567137 L72.6515295,147.567137 C72.6930722,147.567137 72.7331313,147.567879 72.7754158,147.568621 C72.7798668,147.568621 72.7887688,147.568621 72.7932198,147.569362 C72.8266024,147.569362 72.8644359,147.570104 72.8978185,147.570846 L72.9289755,147.570846 C72.9608744,147.571588 72.9905477,147.571588 73.0231884,147.57233 C73.0350578,147.57233 73.047669,147.573072 73.0595383,147.573072 C73.0862443,147.573072 73.1159177,147.573072 73.1433656,147.573813 C73.1582023,147.573813 73.1752644,147.574555 73.1901011,147.574555 L73.2679937,147.574555 C73.2850559,147.575297 73.2984089,147.575297 73.3154711,147.575297 C73.3406935,147.576039 73.3666577,147.576039 73.39188,147.576039 L73.4415829,147.576039 C73.4668053,147.576781 73.4898021,147.576781 73.5157663,147.576781 L73.5676947,147.576781 L73.64262,147.576781 L73.6908392,147.576781 L73.7702155,147.576781 C73.7850521,147.576781 73.8021143,147.577523 73.816951,147.577523 L73.9400955,147.577523 C114.522134,147.577523 147.538947,114.561451 147.538947,73.9801545 L147.538947,73.8636866 C147.538947,73.8488499 147.538205,73.8325295 147.538205,73.8176928 L147.538205,73.7487023 L147.538205,73.6997412 L147.538205,73.6300088 C147.537464,73.6151721 147.537464,73.6010773 147.537464,73.5862406 L147.537464,73.5157663 C147.537464,73.494995 147.536722,73.4749655 147.536722,73.4549359 L147.536722,73.4015239 C147.53598,73.3807525 147.53598,73.3599812 147.53598,73.3377261 C147.53598,73.3184384 147.535238,73.3043436 147.535238,73.2850559 C147.535238,73.2635427 147.535238,73.2427714 147.534496,73.2212582 L147.534496,73.1700716 C147.534496,73.1455911 147.533754,73.1240779 147.533754,73.1003392 C147.533754,73.087728 147.533013,73.0706658 147.533013,73.0580546 C147.532271,73.0313486 147.532271,73.0016753 147.531529,72.9742274 L147.531529,72.9475214 C147.530787,72.917848 147.530787,72.8896583 147.530045,72.8599849 L147.530045,72.8332789 C147.529303,72.8028637 147.528562,72.7724485 147.528562,72.7420333 C147.528562,72.7346149 147.52782,72.7279384 147.52782,72.7205201 C147.52782,72.6901049 147.527078,72.658206 147.526336,72.627049 C147.526336,72.6203725 147.526336,72.6144378 147.525594,72.6070195 C147.525594,72.5751206 147.524852,72.5409962 147.524111,72.5090974 L147.524111,72.497228 C147.523369,72.4623618 147.522627,72.4274956 147.521885,72.3933712 C147.521885,72.3911457 147.521885,72.3896621 147.521143,72.3866947 C147.119811,53.5856495 139.622093,36.5108524 127.617732,23.7023436" id="Fill-12" fill="#CABE4C" sketch:type="MSShapeGroup"></path>
            <path d="M123.079933,27.8106212 L21.5614102,119.710522 L30.2505138,129.179293 L64.9935754,97.2922933 L64.9995101,97.2871005 C64.9995101,97.2871005 64.9995101,97.2871005 64.9987682,97.2871005 L128.944132,38.5976319 L128.95971,38.5850207 L131.13551,36.5872613 L123.079933,27.8106212" id="Fill-13" fill="#CABE4C" sketch:type="MSShapeGroup"></path>
        </g>
    </g>
</svg>