<?xml version="1.0" encoding="UTF-8" standalone="no"?>
<svg width="88px" height="156px" viewBox="0 0 88 156" version="1.1" xmlns="http://www.w3.org/2000/svg" xmlns:xlink="http://www.w3.org/1999/xlink" xmlns:sketch="http://www.bohemiancoding.com/sketch/ns">
    <!-- Generator: Sketch 3.3.3 (12081) - http://www.bohemiancoding.com/sketch -->
    <title>Untitled 2</title>
    <desc>Created with Sketch.</desc>
    <defs></defs>
    <g id="Page-1" stroke="none" stroke-width="1" fill="none" fill-rule="evenodd" sketch:type="MSPage">
        <g id="Imported-Layers" sketch:type="MSLayerGroup">
            <path d="M37.8944211,155.897156 C35.8015263,153.958711 35.1502105,151.537244 35.5166842,148.794533 C36.1778421,143.8112 34.7982105,139.8488 31.1745789,136.027378 C25.5778947,130.119022 21.4401579,123.0892 18.9981579,115.227956 C17.4801579,110.348044 18.4498947,107.184133 21.8101053,105.453689 C25.1587368,103.727867 28.3991053,104.893244 31.3951579,108.900711 C33.0399474,111.099156 34.7154211,113.266978 38.1561053,113.621156 C38.1561053,112.434978 38.1520526,111.355689 38.1561053,110.278133 C38.1647895,98.0153778 38.0681053,85.7485778 38.2857895,73.4881333 C38.3280526,71.2544444 39.1617368,68.6688889 40.5060526,66.9164889 C42.0448947,64.9110222 44.7723158,64.7446222 47.2548421,65.6788889 C49.973,66.6928889 50.9294211,68.9560444 51.2374211,71.6248 C52.0606842,78.7592 52.9001579,85.8843556 53.6678421,92.4664 C62.2443684,94.9075111 70.4949474,97.1804889 78.694,99.6198667 C82.5034737,100.752311 84.8372105,104.080311 84.8696316,108.075067 C84.9147895,114.053333 85.1000526,120.048356 84.7642632,126.009867 C84.6062105,128.846756 84.0330526,132.0644 82.5011579,134.332178 C79.2463158,139.161822 78.1619474,144.219111 78.7872105,149.808533 C79.0720526,152.321289 78.3165263,154.346978 76.3064211,155.897156 L37.8944211,155.897156" id="Fill-1" fill="#FBE61D" sketch:type="MSShapeGroup"></path>
            <path d="M82.4050526,0.118444444 C86.9937895,2.77506667 87.9392105,6.86977778 87.9091053,11.9074222 C87.7388947,40.7980444 87.824,69.6996444 87.824,98.5943111 L87.824,102.030356 C84.8314211,99.9156889 81.9905263,98.1234222 79.4489474,95.9764 C78.7426316,95.3847556 78.7188947,93.756 78.7154211,92.6033333 C78.6766316,68.5729778 78.6864737,44.5443556 78.6864737,20.5174667 C78.6864737,15.4174222 78.6233684,15.3509778 73.6496316,15.3509778 L13.6110526,15.3509778 C9.63715789,15.3532889 9.30078947,15.6964889 9.29789474,19.7195556 C9.29731579,48.2097778 9.31294737,76.6988444 9.273,105.187333 C9.26836842,107.886711 9.34015789,110.175289 13.0541053,109.821111 C13.5693684,109.768533 14.6045263,110.627689 14.6757368,111.158667 C15.7948421,119.583244 20.2116316,126.494044 24.7013684,133.381156 C24.8588421,133.623244 24.9161579,133.928889 25.0082105,134.1704 C24.8796842,134.393422 24.7818421,134.701378 24.6816842,134.701378 C18.5280526,134.733156 12.3379474,135.141067 6.22715789,134.597378 C2.38410526,134.257067 0.185263158,130.547733 0.169631579,126.265822 C0.134315789,115.420933 0.155736842,104.573733 0.155736842,93.7224889 C0.155736842,66.4490667 0.247210526,39.1796889 0.0741052632,11.9051111 C0.0422631579,6.86977778 0.985947368,2.77506667 5.57931579,0.118444444 L82.4050526,0.118444444 M43.9415263,10.0874222 L43.9415263,10.0735556 C45.8705789,10.0735556 47.8198947,10.2255111 49.7228947,9.99671111 C50.5085263,9.89906667 51.1911053,8.96826667 51.9223158,8.41128889 C51.2246842,7.69657778 50.5606316,6.39715556 49.8218947,6.36017778 C45.9759474,6.14524444 42.1039474,6.14524444 38.258,6.34573333 C37.4908947,6.38386667 36.7909474,7.6284 36.0585789,8.31422222 C36.8586842,8.90644444 37.5997368,9.88346667 38.4687368,10.0094222 C40.2547895,10.2792444 42.1120526,10.0874222 43.9415263,10.0874222" id="Fill-2" fill="#8A8B8A" sketch:type="MSShapeGroup"></path>
            <path d="M55.0127368,73.4846667 C52.4422105,64.0432 50.1767895,61.7003111 44.143,62.0313778 C38.1647895,62.3607111 35.9225263,65.3460889 34.6100526,74.7268889 C29.7822105,71.9616444 28.4813158,63.5509333 31.9908947,57.7558222 C36.0313684,51.0917333 45.1897368,49.0308 51.7040526,53.3156 C58.4898947,57.7876 60.0015263,66.4473333 55.0127368,73.4846667" id="Fill-3" fill="#8A8B8A" sketch:type="MSShapeGroup"></path>
            <path d="M68.9983684,63.6462667 C69.0747895,69.0970222 67.3732632,73.9607556 64.2122105,78.3697778 C63.1116316,79.9072444 61.8512632,81.068 59.9303158,79.7916889 C58.069,78.5535111 58.4007368,76.9166667 59.4955263,75.3052444 C64.6765263,67.7034222 64.7975263,60.0692444 59.6304211,52.4142667 C58.5495263,50.8097778 58.0603158,49.1359556 59.9285789,47.9151111 C61.8923684,46.6289778 63.2876316,47.7510222 64.4617368,49.4508444 C67.4126316,53.7333333 69.0429474,58.4185333 68.9983684,63.6462667" id="Fill-4" fill="#343433" sketch:type="MSShapeGroup"></path>
            <path d="M18.9726842,64.5152444 C18.9692105,58.3728889 20.6857895,53.6143111 23.7368421,49.2763556 C24.8681053,47.6637778 26.2697368,46.7144889 28.0783684,47.8677333 C29.9391053,49.0498667 29.5610526,50.7560444 28.4639474,52.3605333 C23.2580526,59.9710222 23.2331579,67.6040444 28.3614737,75.2503556 C29.4475789,76.8658222 29.8603684,78.4483556 28.0175789,79.7414222 C26.1244211,81.068 24.8258421,79.9881333 23.7206316,78.4373778 C20.5746316,74.0237333 18.8638421,69.16 18.9726842,64.5152444" id="Fill-5" fill="#8A8B8A" sketch:type="MSShapeGroup"></path>
            <path d="M40.4012632,67.0563111 C40.3977895,67.0609333 40.3948947,67.0655556 40.3914211,67.0701778 C40.3948947,67.0655556 40.3977895,67.0609333 40.4012632,67.0563111 M40.4417895,67.002 C40.4331053,67.0135556 40.4244211,67.0256889 40.4157368,67.0372444 C40.4238421,67.0256889 40.4331053,67.0135556 40.4417895,67.002 M40.4713158,66.9621333 C40.4632105,66.9731111 40.4551053,66.9840889 40.447,66.9944889 C40.4551053,66.9840889 40.4632105,66.9731111 40.4713158,66.9621333 M40.5060526,66.9164889 L40.5060526,66.9164889 C40.4962105,66.9297778 40.4869474,66.9419111 40.4771053,66.9552 C40.4869474,66.9419111 40.4962105,66.9292 40.5060526,66.9164889" id="Fill-6" fill="#CBCCCB" sketch:type="MSShapeGroup"></path>
            <path d="M40.535,66.8847111 L40.5060526,66.9164889 C40.4962105,66.9292 40.4869474,66.9419111 40.4771053,66.9552 C40.4753684,66.9575111 40.4730526,66.9598222 40.4713158,66.9621333 C40.4632105,66.9731111 40.4551053,66.9840889 40.447,66.9944889 C40.4452632,66.9973778 40.4441053,66.9996889 40.4417895,67.002 C40.4331053,67.0135556 40.4238421,67.0256889 40.4157368,67.0372444 C40.4105263,67.0436 40.4058947,67.0505333 40.4012632,67.0563111 C40.3977895,67.0609333 40.3948947,67.0655556 40.3914211,67.0701778 C39.9572105,67.6652889 39.5808947,68.3499556 39.2694211,69.0773778 L40.535,66.8847111" id="Fill-7" fill="#CABE4C" sketch:type="MSShapeGroup"></path>
            <path d="M54.9907368,73.4037778 C54.9982632,73.4303556 55.0057895,73.4575111 55.0127368,73.4846667 C55.0057895,73.4575111 54.9982632,73.4303556 54.9907368,73.4037778 M54.9351579,73.1998222 C54.9432632,73.2292889 54.9513684,73.2587556 54.9594737,73.2888 C54.9513684,73.2587556 54.9432632,73.2292889 54.9351579,73.1998222 M54.8969474,73.0617333 C54.8998421,73.0727111 54.9027368,73.0836889 54.9062105,73.0946667 C54.9027368,73.0836889 54.8998421,73.0727111 54.8969474,73.0617333 M43.9953684,62.0400444 C43.7574211,62.0550667 43.5246842,62.0741333 43.2983158,62.0989778 L43.2954211,62.1041778 C43.5246842,62.0787556 43.7556842,62.0556444 43.9953684,62.0400444 M45.1729474,62.0013333 C44.8423684,62.0013333 44.4996316,62.0117333 44.143,62.0313778 C44.4990526,62.0117333 44.8423684,62.0013333 45.1729474,62.0013333 L45.1729474,62.0013333 L45.1810526,62.0013333 L45.1729474,62.0013333" id="Fill-8" fill="#CBCCCB" sketch:type="MSShapeGroup"></path>
            <path d="M49.1294737,51.9953778 L43.2983158,62.0989778 C43.5246842,62.0741333 43.7574211,62.0550667 43.9953684,62.0400444 C44.044,62.0365778 44.0932105,62.0336889 44.143,62.0313778 C44.4996316,62.0117333 44.8423684,62.0013333 45.1729474,62.0013333 L45.1810526,62.0013333 C50.3626316,62.0042222 52.5255789,64.5216 54.8969474,73.0617333 C54.8998421,73.0727111 54.9027368,73.0836889 54.9062105,73.0946667 C54.9154737,73.1293333 54.9253158,73.1645778 54.9351579,73.1998222 C54.9432632,73.2292889 54.9513684,73.2587556 54.9594737,73.2888 C54.9698947,73.3269333 54.9803158,73.3656444 54.9907368,73.4037778 C54.9982632,73.4303556 55.0057895,73.4575111 55.0127368,73.4846667 C57.0008421,70.6807111 57.9561053,67.6190667 57.9572632,64.6677778 C57.9595789,60.2113778 55.7862105,56.0063111 51.7040526,53.3156 C50.8831053,52.7771111 50.0204737,52.3391556 49.1294737,51.9953778" id="Fill-9" fill="#777776" sketch:type="MSShapeGroup"></path>
            <path d="M61.5513684,47.3581333 C61.0557895,47.3598667 60.5173684,47.5291556 59.9285789,47.9151111 C59.0236842,48.5061778 58.6716842,49.2041333 58.6722632,49.9483111 C58.6716842,49.2041333 59.0236842,48.5061778 59.9285789,47.9151111 C60.5173684,47.5291556 61.0557895,47.3604444 61.5513684,47.3581333 M61.5594737,47.3581333 L61.5594737,47.3581333 L61.5664211,47.3581333 L61.5594737,47.3581333" id="Fill-10" fill="#E4E5E3" sketch:type="MSShapeGroup"></path>
            <path d="M59.5435789,75.2347556 C59.5418421,75.2370667 59.5406842,75.2388 59.5389474,75.2411111 C59.5406842,75.2388 59.5418421,75.2370667 59.5435789,75.2347556 M68.9989474,63.5572889 L68.9989474,63.5884889 L68.9989474,63.5572889 M68.9989474,63.492 L68.9989474,63.5318667 L68.9989474,63.492 M68.9995263,63.4267111 L68.9995263,63.4746667 L68.9995263,63.4631111 L68.9995263,63.4267111 M61.5594737,47.3581333 L61.5513684,47.3581333 C61.0557895,47.3604444 60.5173684,47.5291556 59.9285789,47.9151111 C59.0236842,48.5061778 58.6716842,49.2041333 58.6722632,49.9483111 C58.6734211,50.7410222 59.0728947,51.5868889 59.6304211,52.4142667 C60.8682105,54.2481333 61.8026316,56.0808444 62.4365789,57.9118222 L65.1657368,50.5474667 C67.6222105,54.4671111 68.9954737,58.7230222 68.9995263,63.4209333 C68.9960526,58.2839111 67.3697895,53.6715111 64.4617368,49.4508444 C63.6431053,48.2658222 62.7173684,47.3616 61.5664211,47.3581333 L61.5594737,47.3581333" id="Fill-11" fill="#484847" sketch:type="MSShapeGroup"></path>
            <path d="M35.5247895,148.728667 C35.5242105,148.732133 35.5242105,148.735022 35.5236316,148.739067 C35.5242105,148.7356 35.5242105,148.732133 35.5247895,148.728667 M35.5323158,148.670311 C35.5317368,148.674356 35.5311579,148.678978 35.5305789,148.683022 C35.5311579,148.678978 35.5317368,148.674356 35.5323158,148.670311 M35.5392632,148.614267 C35.5386842,148.618311 35.5381053,148.622933 35.5381053,148.626978 C35.5381053,148.622933 35.5386842,148.618311 35.5392632,148.614267 M35.5467895,148.557067 C35.5462105,148.562267 35.5456316,148.567467 35.5444737,148.572667 C35.5456316,148.567467 35.5462105,148.562267 35.5467895,148.557067 M32.7921579,137.943289 L32.7840526,137.965822 C35.1270526,141.136667 36.0278947,144.494711 35.5508421,148.520667 C36.0290526,144.485467 35.1467368,141.118756 32.7921579,137.943289 M52.7021579,84.1966667 L52.701,84.1995556 C52.8625263,85.5769778 53.0223158,86.9416889 53.1797895,88.2890667 C53.0223158,86.9393778 52.8631053,85.5723556 52.7021579,84.1966667" id="Fill-12" fill="#CBCCCB" sketch:type="MSShapeGroup"></path>
            <path d="M52.701,84.1995556 L32.7921579,137.943289 C35.1467368,141.118756 36.0290526,144.485467 35.5508421,148.520667 C35.5491053,148.5328 35.5479474,148.544933 35.5467895,148.557067 C35.5462105,148.562267 35.5456316,148.567467 35.5444737,148.572667 C35.5427368,148.585956 35.541,148.6004 35.5392632,148.614267 C35.5386842,148.618311 35.5381053,148.622933 35.5381053,148.626978 C35.5357895,148.641422 35.5340526,148.655867 35.5323158,148.670311 C35.5317368,148.674356 35.5311579,148.678978 35.5305789,148.683022 C35.5288421,148.698044 35.5271053,148.713644 35.5247895,148.728667 C35.5242105,148.732133 35.5242105,148.7356 35.5236316,148.739067 C35.5213158,148.756978 35.519,148.776044 35.5166842,148.794533 C35.453,149.266 35.4205789,149.727644 35.42,150.179467 C35.4165263,152.355378 36.1610526,154.292089 37.8944211,155.897156 L76.3064211,155.897156 C78.0421053,154.558444 78.8422105,152.866133 78.8456842,150.811556 C78.8462632,150.486267 78.826,150.152311 78.7872105,149.808533 C78.6748947,148.804356 78.6175789,147.816933 78.6181579,146.845111 C78.6216316,142.408933 79.8316316,138.294 82.5011579,134.332178 C84.0330526,132.0644 84.6062105,128.846756 84.7642632,126.009867 C84.9165263,123.308756 84.9616842,120.600711 84.9616842,117.890356 C84.9611053,114.618978 84.8945263,111.344133 84.8696316,108.075067 C84.8372105,104.080311 82.5034737,100.752311 78.694,99.6198667 C70.4949474,97.1804889 62.2443684,94.9075111 53.6678421,92.4664 C53.5080526,91.0988 53.3447895,89.7034667 53.1797895,88.2890667 C53.0223158,86.9416889 52.8625263,85.5769778 52.701,84.1995556" id="Fill-13" fill="#CABE4C" sketch:type="MSShapeGroup"></path>
            <path d="M77.9755263,15.9657333 L77.9726316,15.9732444 C78.6627368,16.6059111 78.6864737,17.8862667 78.6864737,20.4862667 C78.6864737,17.8822222 78.6673684,16.5989778 77.9755263,15.9657333 M87.9091053,11.8201778 L87.9091053,11.8687111 L87.9091053,11.8201778 M87.9079474,11.3562222 C87.9096842,11.5093333 87.9096842,11.6636 87.9091053,11.8190222 C87.9096842,11.6636 87.9096842,11.5093333 87.9079474,11.3562222 M87.9079474,11.3128889 L87.9079474,11.3365778 L87.9079474,11.3128889 M87.9073684,11.2666667 L87.9073684,11.2753333 L87.9073684,11.2666667" id="Fill-14" fill="#CBCCCB" sketch:type="MSShapeGroup"></path>
            <path d="M83.5617895,0.882844444 L77.9755263,15.9657333 C78.6673684,16.5989778 78.6864737,17.8822222 78.6864737,20.4862667 L78.6864737,20.5174667 C78.6864737,28.7768 78.6853158,37.0367111 78.6853158,45.2960444 C78.6858947,61.0641778 78.6899474,76.8334667 78.7154211,92.6033333 C78.7188947,93.756 78.7426316,95.3847556 79.4489474,95.9764 C81.9905263,98.1234222 84.8314211,99.9156889 87.824,102.030356 L87.824,98.5943111 C87.824,84.1469778 87.8025789,69.6979111 87.8025789,55.2494222 C87.8025789,40.8009333 87.824,26.3530222 87.9091053,11.9074222 L87.9091053,11.8687111 L87.9091053,11.8201778 L87.9091053,11.8190222 C87.9096842,11.6636 87.9096842,11.5093333 87.9079474,11.3562222 L87.9079474,11.3365778 L87.9079474,11.3128889 C87.9073684,11.3007556 87.9073684,11.2874667 87.9073684,11.2753333 L87.9073684,11.2666667 C87.8564211,6.97377778 86.9787368,3.40657778 83.5617895,0.882844444" id="Fill-15" fill="#777776" sketch:type="MSShapeGroup"></path>
            <path d="M59.5389474,75.2411111 C59.5244737,75.2624889 59.51,75.2838667 59.4955263,75.3052444 C58.9565263,76.0985333 58.6027895,76.8976 58.6039474,77.6521778 C58.6027895,76.8976 58.9565263,76.0985333 59.4955263,75.3052444 C59.51,75.2838667 59.5244737,75.2624889 59.5389474,75.2411111 M68.9989474,63.5884889 C68.9989474,63.6081333 68.9983684,63.6272 68.9983684,63.6462667 C68.9983684,63.6272 68.9989474,63.6075556 68.9989474,63.5884889 M68.9989474,63.5318667 L68.9989474,63.5572889 L68.9989474,63.5318667 M68.9995263,63.4746667 C68.9989474,63.4804444 68.9989474,63.4862222 68.9989474,63.492 C68.9989474,63.4862222 68.9989474,63.4804444 68.9995263,63.4746667 M68.9995263,63.4209333 L68.9995263,63.4267111 L68.9995263,63.4209333 M62.4365789,57.9118222 L62.4319474,57.9251111 C64.4316316,63.7086667 63.4398947,69.4812444 59.5435789,75.2347556 C62.1320526,71.4127556 63.4422105,67.5820889 63.4439474,63.7456444 C63.4451053,61.8025778 63.1104737,59.8583556 62.4365789,57.9118222" id="Fill-16" fill="#CBCCCB" sketch:type="MSShapeGroup"></path>
            <path d="M61.4859474,80.3376889 L61.4934737,80.3376889 L61.4859474,80.3376889 M59.9748947,79.8205778 C59.9864737,79.8286667 59.9986316,79.8367556 60.0107895,79.8436889 C59.9986316,79.8367556 59.9864737,79.8286667 59.9748947,79.8205778 M64.1786316,78.4171556 C63.4207895,79.4658222 62.5865263,80.3272889 61.5125789,80.3376889 C62.5865263,80.3272889 63.4207895,79.4658222 64.1786316,78.4171556" id="Fill-17" fill="#B9BAB8" sketch:type="MSShapeGroup"></path>
            <path d="M65.1657368,50.5474667 L62.4365789,57.9118222 C63.1104737,59.8583556 63.4451053,61.8025778 63.4439474,63.7456444 C63.4422105,67.5820889 62.1320526,71.4127556 59.5435789,75.2347556 C59.5418421,75.2370667 59.5406842,75.2388 59.5389474,75.2411111 C59.5244737,75.2624889 59.51,75.2838667 59.4955263,75.3052444 C58.9565263,76.0985333 58.6027895,76.8976 58.6039474,77.6521778 C58.6056842,78.4310222 58.9848947,79.1630667 59.9303158,79.7916889 C59.9447895,79.8015111 59.9604211,79.8113333 59.9748947,79.8205778 C59.9864737,79.8286667 59.9986316,79.8367556 60.0107895,79.8436889 C60.5515263,80.1874667 61.0395789,80.3359556 61.4859474,80.3376889 L61.4934737,80.3376889 L61.5125789,80.3376889 C62.5865263,80.3272889 63.4207895,79.4658222 64.1786316,78.4171556 C64.1896316,78.4009778 64.2012105,78.3853778 64.2122105,78.3697778 C67.2991579,74.0636 68.9943158,69.3246667 69.0006842,64.0287556 C69.0012632,63.9016444 69.0001053,63.7745333 68.9983684,63.6462667 C68.9983684,63.6272 68.9989474,63.6081333 68.9989474,63.5884889 L68.9989474,63.5572889 L68.9989474,63.5318667 L68.9989474,63.492 C68.9989474,63.4862222 68.9989474,63.4804444 68.9995263,63.4746667 L68.9995263,63.4267111 L68.9995263,63.4209333 C68.9954737,58.7230222 67.6222105,54.4671111 65.1657368,50.5474667" id="Fill-18" fill="#3F403F" sketch:type="MSShapeGroup"></path>
        </g>
    </g>
</svg>