<?xml version="1.0" encoding="UTF-8" standalone="no"?>
<svg width="149px" height="148px" viewBox="0 0 149 148" version="1.1" xmlns="http://www.w3.org/2000/svg" xmlns:xlink="http://www.w3.org/1999/xlink" xmlns:sketch="http://www.bohemiancoding.com/sketch/ns">
    <!-- Generator: Sketch 3.3.3 (12081) - http://www.bohemiancoding.com/sketch -->
    <title>Untitled 2</title>
    <desc>Created with Sketch.</desc>
    <defs></defs>
    <g id="Page-1" stroke="none" stroke-width="1" fill="none" fill-rule="evenodd" sketch:type="MSPage">
        <g id="Imported-Layers" sketch:type="MSLayerGroup">
            <path d="M138.89929,74.1405628 C138.89929,110.187859 109.62824,139.408563 73.51958,139.408563 C37.410175,139.408563 8.139125,110.187859 8.139125,74.1405628 C8.139125,38.0932663 37.410175,8.87256281 73.51958,8.87256281 C109.62824,8.87256281 138.89929,38.0932663 138.89929,74.1405628" id="Fill-1" fill="#8A8B8A" sketch:type="MSShapeGroup"></path>
            <path d="M148.52022,65.3297286 L148.52022,83.7694874 C147.227645,84.8344925 147.57258,86.4513367 147.27458,87.8041608 C140.75136,117.366975 122.91308,136.475337 94.016765,145.36798 C90.571885,146.427035 87.00855,147.09192 83.4996,147.94199 L65.028815,147.94199 C63.95825,146.649407 62.328935,146.963256 60.97527,146.699236 C21.43216,138.956382 -4.439455,102.389226 1.58387,62.6553166 C6.686375,28.9983317 35.47243,2.72870352 69.673145,0.524321608 C104.28808,-1.70460302 136.0221,20.3830955 145.53575,53.3870955 C146.673365,57.3258291 147.533095,61.3448844 148.52022,65.3297286 M51.729075,83.8133668 C51.729075,88.361206 51.854235,92.9157387 51.675435,97.4531658 C51.584545,99.7646432 52.24983,100.975417 54.51612,101.779377 C58.93248,103.340442 63.373425,104.75797 67.99317,105.504663 C78.4038,107.191417 88.652765,107.179518 99.08351,104.630794 C106.678785,102.775216 106.36067,96.0378693 109.44795,91.3784724 C110.356105,90.0063116 110.94689,88.5925025 110.879095,86.9087236 C110.83216,85.7455477 110.317365,84.8069749 109.79363,83.8282412 C108.90857,82.1734673 108.69848,80.3944925 110.19295,79.0818291 C113.024695,76.5940905 112.86005,73.7657286 111.49521,70.7306131 C110.65336,68.8631357 110.64442,67.2745528 112.21786,65.7112563 C114.411885,63.5388543 114.45435,60.7558593 113.40986,58.1610251 C112.32365,55.4590955 109.783945,54.683397 107.01478,54.6796784 C102.83235,54.6752161 98.63651,54.5160603 94.46004,54.7228141 C91.443535,54.8685829 91.26548,54.0155377 92.394155,51.4690452 C94.53156,46.6460302 95.155125,41.5686633 93.85361,36.3507337 C93.27996,34.0563618 92.364355,31.9412261 90.73057,30.1786131 C88.929905,28.2471759 86.685965,27.9415075 84.281105,28.5714372 C81.90083,29.1916985 81.491825,31.209407 81.479905,33.2256281 C81.427755,43.4889447 76.97787,50.9610854 67.93655,56.025809 C63.345115,58.5968442 59.3318,62.1778492 54.85584,64.9764623 C52.332525,66.5583518 51.51973,68.423598 51.672455,71.2765025 C51.892975,75.4480201 51.729075,79.6358995 51.729075,83.8133668 M35.28469,85.5700302 L35.28469,97.0032161 C35.28469,107.33198 35.280965,107.27992 45.6834,106.809889 C47.56974,106.728824 48.2611,106.220864 48.252905,104.27604 C48.18511,91.8633769 48.170955,79.4477387 48.258865,67.0328442 C48.27749,64.7994573 47.33879,64.3331457 45.39583,64.4335477 C43.06249,64.546593 40.707545,64.594191 38.3824,64.4209045 C35.98946,64.2401809 35.172195,65.0597588 35.234775,67.5043618 C35.38899,73.5240201 35.28618,79.5444221 35.28469,85.5700302" id="Fill-2" fill="#FBE61D" sketch:type="MSShapeGroup"></path>
            <path d="M60.51933,146.608503 C60.67131,146.638995 60.822545,146.669487 60.97527,146.699236 C60.822545,146.669487 60.67131,146.638995 60.51933,146.608503 M60.40311,146.585447 C60.439615,146.592141 60.47463,146.599578 60.51039,146.607015 C60.47463,146.599578 60.439615,146.592141 60.40311,146.585447 M60.293595,146.562392 C60.32712,146.569085 60.3599,146.576523 60.39417,146.583216 C60.360645,146.576523 60.32712,146.569085 60.293595,146.562392 M60.1811,146.539337 C60.21239,146.54603 60.242935,146.552724 60.27497,146.559417 C60.24368,146.552724 60.21239,146.54603 60.1811,146.539337 M60.071585,146.517025 C60.099895,146.522975 60.126715,146.528181 60.155025,146.534131 C60.128205,146.528925 60.098405,146.522231 60.071585,146.517025 M59.956855,146.493226 C59.982185,146.498432 60.006025,146.502894 60.03061,146.508101 C60.00677,146.502894 59.98144,146.498432 59.956855,146.493226 M59.85032,146.470171 C59.8682,146.473889 59.88608,146.477608 59.90396,146.48207 C59.885335,146.477608 59.868945,146.474633 59.85032,146.470171 M59.73857,146.446372 C59.748255,146.448603 59.757195,146.450834 59.76688,146.453065 C59.757195,146.450834 59.748255,146.448603 59.73857,146.446372 M138.508165,36.970995 C141.47401,42.0513367 143.852795,47.5496482 145.53575,53.3870955 C146.673365,57.3258291 147.533095,61.3448844 148.52022,65.3297286 L148.52022,83.7694874 L148.52022,65.3297286 C147.533095,61.3448844 146.673365,57.3258291 145.53575,53.3870955 C143.852795,47.5489045 141.474755,42.0520804 138.508165,36.970995 M138.417275,36.8163015 C138.447075,36.8668744 138.47464,36.9144724 138.50444,36.9657889 C138.475385,36.9159598 138.447075,36.8661307 138.417275,36.8163015 M138.32564,36.6608643 C138.353205,36.7077186 138.38226,36.7560603 138.409825,36.8029146 C138.381515,36.7560603 138.35395,36.7077186 138.32564,36.6608643 M138.23177,36.5017085 C138.26008,36.5493065 138.287645,36.5961608 138.31521,36.6430151 C138.287645,36.5969045 138.259335,36.5485628 138.23177,36.5017085 M138.128215,36.3284221 C138.159505,36.3804824 138.190795,36.4325427 138.22134,36.4853467 C138.190795,36.4332864 138.15876,36.3797387 138.128215,36.3284221 M138.03956,36.1804221 C138.067125,36.2257889 138.095435,36.2741307 138.122255,36.3187538 C138.09469,36.2726432 138.06787,36.2272764 138.03956,36.1804221 M137.95016,36.0324221 C137.9591,36.0465528 137.96655,36.059196 137.974745,36.0733266 C137.96655,36.059196 137.9591,36.0465528 137.95016,36.0324221 M137.86225,35.8866533 C137.867465,35.8955779 137.87268,35.9037588 137.877895,35.9126834 C137.87268,35.9045025 137.867465,35.8948342 137.86225,35.8866533 M137.773595,35.7416281 C137.77732,35.7483216 137.779555,35.7512965 137.784025,35.7587337 C137.7803,35.7535276 137.776575,35.7468342 137.773595,35.7416281 M137.687175,35.6010653 C137.688665,35.6025528 137.68792,35.6010653 137.688665,35.6032965 C137.68792,35.6025528 137.68792,35.601809 137.687175,35.6010653" id="Fill-3" fill="#CBCCCB" sketch:type="MSShapeGroup"></path>
            <path d="M81.87401,106.673789 L81.89189,106.673789 L81.87401,106.673789 M68.963905,105.657869 C68.96763,105.657869 68.972845,105.658613 68.97657,105.658613 C68.972845,105.658613 68.96763,105.657869 68.963905,105.657869 M67.99317,105.504663 L67.99317,105.504663 C68.1079,105.523256 68.22263,105.541849 68.33736,105.560442 C68.22263,105.541849 68.1079,105.523256 67.99317,105.504663 M67.85311,105.482352 C67.86801,105.484583 67.88142,105.486814 67.89632,105.489045 C67.88142,105.486814 67.867265,105.484583 67.85311,105.482352 M67.74583,105.464503 C67.7652,105.467477 67.783825,105.471196 67.80245,105.473427 C67.783825,105.471196 67.7652,105.467477 67.74583,105.464503 M57.167575,102.687457 L57.16385,102.692663 C60.622885,103.849889 64.115445,104.855397 67.715285,105.459296 C64.11619,104.855397 60.62512,103.845427 57.167575,102.687457 M110.88431,87.1831558 C110.88133,88.747196 110.30619,90.0814271 109.44795,91.3784724 C106.36067,96.0378693 106.678785,102.775216 99.08351,104.630794 C93.323915,106.03791 87.61796,106.672302 81.91126,106.673789 C87.618705,106.672302 93.32317,106.03791 99.08351,104.630794 C106.678785,102.775216 106.36067,96.0378693 109.44795,91.3784724 C110.30619,90.0814271 110.88133,88.747196 110.88431,87.1831558 M106.51712,54.6789347 C106.683255,54.6789347 106.84939,54.6796784 107.01478,54.6796784 C106.84939,54.6796784 106.683255,54.6789347 106.51712,54.6789347 M99.36214,54.617206 C97.72612,54.617206 96.09159,54.6424925 94.46004,54.7228141 C96.090845,54.6424925 97.726865,54.617206 99.36214,54.617206 M99.376295,54.617206 L99.376295,54.617206 L99.400135,54.617206 L99.376295,54.617206" id="Fill-4" fill="#777776" sketch:type="MSShapeGroup"></path>
            <path d="M121.942345,17.4892864 L93.6316,54.7272764 C93.754525,54.7302513 93.88043,54.7324824 94.012295,54.7324824 C94.152355,54.7324824 94.299865,54.7295075 94.46004,54.7228141 C96.09159,54.6424925 97.72612,54.617206 99.36214,54.617206 L99.376295,54.617206 L99.400135,54.617206 C101.772215,54.6179497 104.14653,54.6692663 106.51712,54.6789347 C106.683255,54.6789347 106.84939,54.6796784 107.01478,54.6796784 C109.783945,54.683397 112.32365,55.4590955 113.40986,58.1610251 C113.83004,59.205206 114.0744,60.2791357 114.073655,61.3322412 C114.07142,62.8955377 113.52906,64.4127236 112.21786,65.7112563 C111.314175,66.6089246 110.93199,67.5147739 110.9305,68.4771457 C110.92901,69.1903719 111.136865,69.9348342 111.49521,70.7306131 C112.081525,72.0343518 112.446575,73.3009045 112.44732,74.5176281 C112.448065,76.1329849 111.80811,77.6628141 110.19295,79.0818291 C109.41666,79.7638191 109.100035,80.5714975 109.09929,81.4223116 C109.098545,82.2091658 109.368235,83.0339497 109.79363,83.8282412 C110.317365,84.8069749 110.83216,85.7455477 110.879095,86.9087236 C110.88282,87.0009447 110.885055,87.0924221 110.88431,87.1831558 C110.88133,88.747196 110.30619,90.0814271 109.44795,91.3784724 C106.36067,96.0378693 106.678785,102.775216 99.08351,104.630794 C93.32317,106.03791 87.618705,106.672302 81.91126,106.673789 L81.89189,106.673789 L81.87401,106.673789 C77.5843,106.672302 73.293845,106.314573 68.97657,105.658613 C68.972845,105.658613 68.96763,105.657869 68.963905,105.657869 C68.755305,105.625146 68.546705,105.593166 68.33736,105.560442 C68.22263,105.541849 68.1079,105.523256 67.99317,105.504663 C67.96039,105.499457 67.928355,105.494251 67.89632,105.489045 C67.88142,105.486814 67.86801,105.484583 67.85311,105.482352 C67.83672,105.479377 67.819585,105.476402 67.80245,105.473427 C67.783825,105.471196 67.7652,105.467477 67.74583,105.464503 C67.7354,105.462271 67.72497,105.460784 67.715285,105.459296 C64.115445,104.855397 60.622885,103.849889 57.16385,102.692663 L32.694325,134.880804 C40.606225,140.306975 49.714595,144.315618 59.73857,146.446372 C59.748255,146.448603 59.757195,146.450834 59.76688,146.453065 C59.794445,146.459015 59.822755,146.464965 59.85032,146.470171 C59.868945,146.474633 59.885335,146.477608 59.90396,146.48207 C59.92184,146.485789 59.93972,146.489508 59.956855,146.493226 C59.98144,146.498432 60.00677,146.502894 60.03061,146.508101 C60.044765,146.511075 60.058175,146.51405 60.071585,146.517025 C60.098405,146.522231 60.128205,146.528925 60.155025,146.534131 C60.16322,146.535618 60.17216,146.537849 60.1811,146.539337 L60.27497,146.559417 C60.28093,146.560161 60.287635,146.560905 60.293595,146.562392 C60.32712,146.569085 60.360645,146.576523 60.39417,146.583216 C60.396405,146.58396 60.400875,146.584704 60.40311,146.585447 C60.439615,146.592141 60.47463,146.599578 60.51039,146.607015 C60.514115,146.607759 60.51635,146.607759 60.51933,146.608503 C60.67131,146.638995 60.822545,146.669487 60.97527,146.699236 C62.328935,146.963256 63.95825,146.649407 65.028815,147.94199 L83.4996,147.94199 C87.00855,147.09192 90.571885,146.427035 94.016765,145.36798 C122.91308,136.475337 140.75136,117.366975 147.27458,87.8041608 C147.57258,86.4513367 147.227645,84.8344925 148.52022,83.7694874 L148.52022,65.3297286 C147.533095,61.3448844 146.673365,57.3258291 145.53575,53.3870955 C143.852795,47.5496482 141.47401,42.0513367 138.508165,36.970995 C138.50742,36.9695075 138.50593,36.9672764 138.50444,36.9657889 C138.47464,36.9144724 138.447075,36.8668744 138.417275,36.8163015 C138.41504,36.8118392 138.41206,36.8073769 138.409825,36.8029146 C138.38226,36.7560603 138.353205,36.7077186 138.32564,36.6608643 C138.321915,36.6541709 138.318935,36.6489648 138.31521,36.6430151 C138.287645,36.5961608 138.26008,36.5493065 138.23177,36.5017085 C138.228045,36.4957588 138.225065,36.4912965 138.22134,36.4853467 C138.190795,36.4325427 138.159505,36.3804824 138.128215,36.3284221 C138.12598,36.3254472 138.12449,36.3224724 138.122255,36.3187538 C138.095435,36.2741307 138.067125,36.2257889 138.03956,36.1804221 C138.0187,36.1454673 137.997095,36.1090251 137.974745,36.0733266 C137.96655,36.059196 137.9591,36.0465528 137.95016,36.0324221 C137.92632,35.9922613 137.90248,35.9528442 137.877895,35.9126834 C137.87268,35.9037588 137.867465,35.8955779 137.86225,35.8866533 C137.836175,35.8435176 137.8101,35.8018693 137.784025,35.7587337 C137.779555,35.7512965 137.77732,35.7483216 137.773595,35.7416281 C137.74603,35.6955176 137.71772,35.649407 137.688665,35.6032965 C137.68792,35.6010653 137.688665,35.6025528 137.687175,35.6010653 C133.44738,28.693407 128.104985,22.5919397 121.942345,17.4892864" id="Fill-5" fill="#CABE4C" sketch:type="MSShapeGroup"></path>
        </g>
    </g>
</svg>