<?xml version="1.0" encoding="UTF-8" standalone="no"?>
<svg width="125px" height="156px" viewBox="0 0 125 156" version="1.1" xmlns="http://www.w3.org/2000/svg" xmlns:xlink="http://www.w3.org/1999/xlink" xmlns:sketch="http://www.bohemiancoding.com/sketch/ns">
    <!-- Generator: Sketch 3.3.3 (12081) - http://www.bohemiancoding.com/sketch -->
    <title>Slice 1</title>
    <desc>Created with Sketch.</desc>
    <defs></defs>
    <g id="Page-1" stroke="none" stroke-width="1" fill="none" fill-rule="evenodd" sketch:type="MSPage">
        <g id="Imported-Layers" sketch:type="MSLayerGroup">
            <path d="M124.221158,10.3787895 L124.221158,84.9303684 C123.768895,84.7285263 123.289263,84.5745789 122.868474,84.3207368 C120.148737,82.68 117.457737,80.9879474 114.718158,79.3814211 C113.945,78.9271053 113.584421,78.4166842 113.533789,77.5025789 C113.187579,71.4055789 112.687421,65.3147368 112.428105,59.2143158 C111.986789,48.7198947 104.459105,40.9260526 94.1514737,40.8754211 C72.787,40.7707368 51.4245789,40.7816842 30.0601053,40.8726842 C20.6836842,40.9116842 12.9014737,47.8201579 12.0886316,56.6533158 C11.5487895,62.5320526 11.1102105,68.4292632 10.9193158,74.3251053 C10.8221579,77.3233158 10.2091053,79.521 7.18557895,80.8511053 C4.73678947,81.9273684 2.54184211,83.5804211 0.00136842105,85.1185263 L0.00136842105,83.1849474 C0.00136842105,73.9426316 -0.00136842105,64.7016842 0.00136842105,55.4607368 C0.00684210526,40.9643684 0.00136842105,26.4686842 0.0294210526,11.9757368 C0.0417368421,5.57221053 5.00636842,0.397526316 11.1724737,0.392736842 C45.1113684,0.376315789 79.0502632,0.370842105 112.989842,0.403684211 C117.277789,0.408473684 120.516158,2.49736842 122.627632,6.17705263 C123.363842,7.45926316 123.701158,8.97205263 124.221158,10.3787895" id="Fill-1" fill="#8A8B8A" sketch:type="MSShapeGroup"></path>
            <path d="M19.3672632,155.538842 L15.4282632,155.538842 C15.21,155.430737 15.0040526,155.288421 14.7748421,155.222053 C10.1536842,153.843368 7.32994737,150.250579 7.18147368,145.449474 C7.11715789,143.379053 7.16573684,141.309316 7.16505263,139.238895 C7.16368421,136.927632 7.16368421,134.618421 7.16368421,132.093 L0.175842105,132.093 C0.0971578947,131.730368 0.0383157895,131.586 0.0383157895,131.441632 C0.0232631579,118.467632 0,105.493632 0.0472105263,92.521 C0.0506315789,91.9914211 0.617842105,91.2791579 1.118,90.9678421 C5.70289474,88.127 10.3459474,85.3819474 14.9212632,82.5274211 C15.4474211,82.2003684 15.9462105,81.4046316 15.9934211,80.7902105 C16.5674737,73.0948947 17.0293158,65.3879474 17.5746316,57.6892105 C17.9878947,51.8248421 23.4821053,46.4914211 29.3464737,46.4756842 C51.1543158,46.4188947 72.9635263,46.423 94.7727368,46.4722632 C100.570737,46.4859474 106.142263,51.6921053 106.592474,57.4736842 C107.194579,65.169 107.660526,72.8759474 108.129895,80.5787895 C108.188053,81.5455789 108.482263,82.121 109.327263,82.6225263 C114.311737,85.5796842 119.258579,88.5970526 124.221158,91.5952632 L124.221158,131.902789 C121.842842,132.017737 119.465211,132.132684 117.027368,132.253105 C117.027368,136.595105 117.054053,140.818053 117.021211,145.038947 C116.981526,150.176 114.211842,153.786579 109.267737,155.248737 C109.087789,155.304842 108.933158,155.441 108.765526,155.538842 L104.825158,155.538842 C104.550789,155.429368 104.279158,155.306895 103.997947,155.213158 C99.9029474,153.884421 97.1818421,151.213263 96.6433684,146.879474 C96.2882632,143.996211 96.4422105,141.043158 96.3977368,138.119526 C96.369,136.167474 96.3922632,134.213368 96.3922632,132.199053 L27.8001579,132.199053 C27.8001579,132.814158 27.7994737,133.355368 27.8001579,133.893158 C27.8076842,137.678895 27.8863684,141.468737 27.8035789,145.253105 C27.7091579,149.577316 25.6442105,152.720579 21.7462632,154.618579 C20.9833684,154.987368 20.1616316,155.234368 19.3672632,155.538842 M22.1157368,81.5695263 L102.030158,81.5695263 C102.030158,81.0112105 102.057526,80.5596316 102.026053,80.1155789 C101.562842,73.3692632 101.040789,66.6284211 100.636421,59.8793684 C100.340842,54.9154211 97.9481579,52.5336842 92.9972105,52.5323158 C82.1422105,52.5309474 71.2837895,52.5323158 60.4267368,52.5323158 C50.5330526,52.5323158 40.6359474,52.5220526 30.7388421,52.5377895 C26.4091579,52.5453158 23.7927368,55.1323158 23.5614737,59.4223158 C23.3514211,63.3517368 23.0223158,67.2736316 22.763,71.2023684 C22.5378947,74.6193158 22.3353684,78.0362632 22.1157368,81.5695263 M90.3657368,118.412895 L90.3657368,116.827579 C90.3657368,110.414474 90.3698421,104.001368 90.3643684,97.5841579 C90.3616316,94.2123684 88.9569474,92.8035789 85.592,92.8035789 C69.9358947,92.8001579 54.2797895,92.8028947 38.6250526,92.8035789 C35.0993158,92.8035789 33.696,94.2151053 33.6918947,97.7818947 C33.6857368,104.095105 33.7254211,110.406263 33.6624737,116.719474 C33.6494737,118.050263 33.9354737,118.525105 35.3907895,118.522368 C48.8574211,118.480632 62.3261053,118.482684 75.7927368,118.484737 C80.1018947,118.484737 84.4110526,118.485421 88.7202105,118.484737 C89.2135263,118.484737 89.7068421,118.441632 90.3657368,118.412895 M106.814842,114.104421 C111.647421,114.185842 115.439316,110.578684 115.570684,105.773474 C115.704105,101.034632 111.940947,97.0744211 107.237,97.0018947 C102.401,96.9266316 98.5112632,100.573474 98.4161579,105.274 C98.3196842,110.196895 101.955579,114.020947 106.814842,114.104421 M17.2277368,114.105789 C22.0069474,114.101684 25.7550526,110.352895 25.7584737,105.570947 C25.7639474,100.797895 22.0001053,97.0080526 17.2523684,96.9998421 C12.4095263,96.9943684 8.59231579,100.808842 8.62105263,105.627053 C8.65115789,110.405579 12.4095263,114.107158 17.2277368,114.105789" id="Fill-2" fill="#FBE61D" sketch:type="MSShapeGroup"></path>
            <path d="M85.0938947,40.8384737 L85.0829474,40.8542105 C88.1057895,40.8637895 91.1293158,40.8617368 94.1514737,40.8754211 C91.1327368,40.8610526 88.1126316,40.8480526 85.0938947,40.8384737" id="Fill-3" fill="#CBCCCB" sketch:type="MSShapeGroup"></path>
            <path d="M112.989842,0.403684211 L112.928947,0.403684211 L85.0938947,40.8384737 C88.1126316,40.8480526 91.1327368,40.8610526 94.1514737,40.8754211 C104.459105,40.9260526 111.986789,48.7198947 112.428105,59.2143158 C112.687421,65.3147368 113.187579,71.4055789 113.533789,77.5025789 C113.584421,78.4166842 113.945,78.9271053 114.718158,79.3814211 C117.457737,80.9879474 120.148737,82.68 122.868474,84.3207368 C123.289263,84.5745789 123.768895,84.7285263 124.221158,84.9303684 L124.221158,10.3787895 C123.701158,8.97205263 123.363842,7.45926316 122.627632,6.17705263 C120.516158,2.49736842 117.277789,0.408473684 112.989842,0.403684211" id="Fill-4" fill="#777776" sketch:type="MSShapeGroup"></path>
            <path d="M14.352,155.088632 C14.4908947,155.135158 14.6318421,155.179632 14.7748421,155.222053 C14.6318421,155.179632 14.4915789,155.135158 14.352,155.088632 M14.3075263,155.073579 C14.3184737,155.077 14.3287368,155.080421 14.339,155.083842 C14.3287368,155.080421 14.3184737,155.077 14.3075263,155.073579 M35.3620526,118.522368 L35.3791579,118.522368 L35.3620526,118.522368 M83.6091579,118.485421 L83.6481579,118.485421 L83.6091579,118.485421 M86.1592105,118.484737 C85.3306316,118.485421 84.5020526,118.485421 83.6734737,118.485421 C84.5020526,118.485421 85.3306316,118.485421 86.1592105,118.484737 M75.7927368,118.484737 L75.7927368,118.484737 L79.7201053,118.484737 L75.7927368,118.484737 M73.6737368,118.484053 L73.6860526,118.484053 L73.6737368,118.484053 M67.3105789,118.484053 C58.4493684,118.484053 49.5881579,118.488158 40.7269474,118.508 C49.5874737,118.488158 58.4500526,118.484053 67.3105789,118.484053 M33.6624737,116.750263 L33.6624737,116.811158 L33.6624737,116.750263 M33.6638421,116.606579 C33.6631579,116.644895 33.6631579,116.681842 33.6624737,116.719474 C33.6631579,116.681842 33.6631579,116.644211 33.6638421,116.606579 M115.574105,105.551789 C115.574105,105.625684 115.572737,105.698895 115.570684,105.773474 C115.441368,110.519158 111.739789,114.095526 106.993421,114.105789 C111.740474,114.096211 115.441368,110.519158 115.570684,105.773474 C115.572737,105.698895 115.574105,105.625684 115.574105,105.551789 M98.4141053,105.447105 C98.4052105,110.285842 102.013053,114.022316 106.814842,114.104421 C106.833316,114.104421 106.851789,114.104421 106.869579,114.105105 C106.851789,114.104421 106.833316,114.104421 106.814842,114.104421 C102.013053,114.022316 98.4052105,110.285842 98.4141053,105.447105 M107.076895,97.0005263 C102.315474,97.0073684 98.5098947,100.624789 98.4161579,105.274 C98.5098947,100.625474 102.316158,97.0080526 107.076895,97.0005263 M107.090579,97.0005263 L107.090579,97.0005263 L107.091263,97.0005263 C107.091263,97.0005263 107.091263,97.0005263 107.090579,97.0005263 M68.1138421,92.8015263 C61.8505789,92.8015263 55.5873158,92.8022105 49.3240526,92.8028947 L49.3233684,92.8035789 C57.382,92.8035789 65.4433684,92.8022105 73.502,92.8022105 C77.5326842,92.8022105 81.5613158,92.8028947 85.592,92.8035789 C79.7673158,92.8022105 73.9392105,92.8015263 68.1138421,92.8015263 M82.1408421,52.5316316 L77.0441579,52.5316316 L77.0434737,52.5323158 L87.6795263,52.5323158 L92.9972105,52.5323158 C89.3791053,52.5316316 85.7596316,52.5316316 82.1408421,52.5316316" id="Fill-5" fill="#CBCCCB" sketch:type="MSShapeGroup"></path>
            <path d="M107.090579,97.0005263 L107.090579,97.0005263 L107.091263,97.0005263 C107.139842,97.0005263 107.187737,97.0005263 107.237,97.0018947 C111.867737,97.0737368 115.585737,100.912158 115.574105,105.551789 C115.574105,105.625684 115.572737,105.698895 115.570684,105.773474 C115.441368,110.519158 111.740474,114.096211 106.993421,114.105789 L106.975632,114.105789 C106.940053,114.105789 106.905158,114.105105 106.869579,114.105105 C106.851789,114.104421 106.833316,114.104421 106.814842,114.104421 C102.013053,114.022316 98.4052105,110.285842 98.4141053,105.447105 C98.4147895,105.389632 98.4154737,105.332158 98.4161579,105.274 C98.5098947,100.624789 102.315474,97.0073684 107.076895,97.0005263 L107.090579,97.0005263 M81.2260526,46.4558421 L77.0441579,52.5316316 L82.1408421,52.5316316 C85.7596316,52.5316316 89.3791053,52.5316316 92.9972105,52.5323158 C97.9481579,52.5336842 100.340842,54.9154211 100.636421,59.8793684 C101.040789,66.6284211 101.562842,73.3692632 102.026053,80.1155789 C102.037684,80.275 102.041105,80.4357895 102.041105,80.6020526 C102.041105,80.8983158 102.030158,81.2116842 102.030158,81.5695263 L57.0556316,81.5695263 L49.3240526,92.8028947 C55.5873158,92.8022105 61.8505789,92.8015263 68.1138421,92.8015263 C73.9392105,92.8015263 79.7673158,92.8022105 85.592,92.8035789 C88.9569474,92.8035789 90.3616316,94.2123684 90.3643684,97.5841579 C90.3664211,100.391474 90.3671053,103.198105 90.3671053,106.004737 C90.3671053,109.612579 90.3657368,113.220421 90.3657368,116.827579 L90.3657368,118.412895 C89.7068421,118.441632 89.2135263,118.484737 88.7202105,118.484737 L86.1592105,118.484737 C85.3306316,118.485421 84.5020526,118.485421 83.6734737,118.485421 L83.6481579,118.485421 L83.6091579,118.485421 C82.3132632,118.485421 81.0166842,118.485421 79.7201053,118.484737 L75.7927368,118.484737 C75.0907368,118.484737 74.3880526,118.484053 73.6860526,118.484053 L73.6737368,118.484053 L71.5622632,118.484053 L67.3317895,118.484053 L67.3105789,118.484053 C58.4500526,118.484053 49.5874737,118.488158 40.7269474,118.508 C38.9486842,118.512105 37.1697368,118.516895 35.3907895,118.522368 L35.3791579,118.522368 L35.3620526,118.522368 C33.9655789,118.518947 33.6631579,118.063947 33.6624737,116.811158 L33.6624737,116.750263 L33.6624737,116.719474 C33.6631579,116.681842 33.6631579,116.644895 33.6638421,116.606579 C33.6665789,116.252842 33.6645263,115.898421 33.6672632,115.544684 L9.07331579,151.272105 C10.2987368,152.992211 12.0687895,154.310684 14.3075263,155.073579 C14.3184737,155.077 14.3287368,155.080421 14.339,155.083842 C14.3431053,155.085211 14.3478947,155.086579 14.352,155.088632 C14.4915789,155.135158 14.6318421,155.179632 14.7748421,155.222053 C15.0040526,155.288421 15.21,155.430737 15.4282632,155.538842 L19.3672632,155.538842 C20.1616316,155.234368 20.9833684,154.987368 21.7462632,154.618579 C25.6442105,152.720579 27.7091579,149.577316 27.8035789,145.253105 C27.8323158,143.952421 27.8412105,142.650368 27.8412105,141.349 C27.8405263,138.863947 27.8049474,136.377526 27.8001579,133.893158 C27.8001579,133.708421 27.7994737,133.523 27.7994737,133.334842 C27.7994737,132.992053 27.8001579,132.638316 27.8001579,132.256526 L27.8001579,132.227789 L27.8001579,132.199053 L96.3922632,132.199053 C96.3922632,133.458 96.3826842,134.693684 96.3833684,135.919105 C96.3833684,136.655316 96.3867895,137.387421 96.3977368,138.119526 C96.4045789,138.575895 96.4073158,139.033632 96.4073158,139.491368 C96.4073158,140.224158 96.4011579,140.957632 96.4011579,141.690421 C96.4011579,143.431053 96.4326316,145.167579 96.6433684,146.879474 C97.1818421,151.213263 99.9029474,153.884421 103.997947,155.213158 C104.279158,155.306895 104.550789,155.429368 104.825158,155.538842 L108.765526,155.538842 C108.933158,155.441 109.087789,155.304842 109.267737,155.248737 C114.211842,153.786579 116.981526,150.176 117.021211,145.038947 C117.033526,143.456368 117.037632,141.873105 117.037632,140.283 C117.037632,137.633737 117.027368,134.966684 117.027368,132.253105 C119.465211,132.132684 121.842842,132.017737 124.221158,131.902789 L124.221158,91.5952632 C119.258579,88.5970526 114.311737,85.5796842 109.327263,82.6225263 C108.482263,82.121 108.188053,81.5455789 108.129895,80.5787895 C107.660526,72.8759474 107.194579,65.169 106.592474,57.4736842 C106.142263,51.6921053 100.570737,46.4859474 94.7727368,46.4722632 C90.2576316,46.462 85.7411579,46.4633684 81.2260526,46.4558421" id="Fill-6" fill="#CABE4C" sketch:type="MSShapeGroup"></path>
        </g>
    </g>
</svg>