<?xml version="1.0" encoding="UTF-8" standalone="no"?>
<svg width="147px" height="156px" viewBox="0 0 147 156" version="1.1" xmlns="http://www.w3.org/2000/svg" xmlns:xlink="http://www.w3.org/1999/xlink" xmlns:sketch="http://www.bohemiancoding.com/sketch/ns">
    <!-- Generator: Sketch 3.3.3 (12081) - http://www.bohemiancoding.com/sketch -->
    <title>Slice 1</title>
    <desc>Created with Sketch.</desc>
    <defs></defs>
    <g id="Page-1" stroke="none" stroke-width="1" fill="none" fill-rule="evenodd" sketch:type="MSPage">
        <g id="Imported-Layers" sketch:type="MSLayerGroup">
            <path d="M146.1474,70.5775652 C146.1572,67.7605217 145.553369,66.5328696 142.361585,66.2208696 C128.784815,64.9088116 120.375662,53.5426667 122.198462,39.9555942 C123.565185,29.7251594 124.326569,19.4223768 125.611877,9.18365217 C126.105646,5.26707246 125.235708,2.27142029 121.915769,0.0813913043 L24.5535231,0.0813913043 C21.8155538,2.12521739 20.2875077,4.51872464 20.7986154,8.27101449 C22.1917231,18.4946667 23.1950923,28.774087 24.4856769,39.012058 C26.3846154,54.08 18.1149231,64.8764058 3.24003077,66.4190725 C0.768169231,66.6783188 0.335461538,67.9745507 0.336969231,70.0854493 C0.374661538,94.3023768 0.327923077,118.523826 0.379184615,142.746029 C0.397276923,151.177565 5.20304615,155.807072 13.6808,155.807072 L67.1714615,155.807072 L67.1714615,152.730783 L67.1676923,152.730783 L67.1676923,149.117159 C67.1676923,117.906609 67.2046308,86.6855072 67.0945692,55.4749565 C67.0870308,53.2773913 66.4198769,50.874087 65.3893692,48.9244638 C59.4890154,37.7384348 53.3866308,26.6646957 47.3566154,15.5487536 C46.8402308,14.5908986 46.3705846,13.6172174 45.6943846,12.2976232 L100.743246,12.2976232 C100.210277,13.4506667 99.8243077,14.4333913 99.3260154,15.3513043 C93.1784,26.6337971 86.9523846,37.8786087 80.9095538,49.2191304 C79.9604615,50.9916522 79.3702,53.1907246 79.3619077,55.1983768 C79.2887846,80.5449855 79.2925538,105.885565 79.2955692,131.230667 L79.4237231,131.230667 L79.4237231,155.807072 L132.592492,155.807072 C135.644062,155.807072 138.186031,155.241855 140.224431,154.149855 L141.0318,154.149855 L141.5806,153.294493 C143.762231,151.662145 145.163631,149.234725 145.758415,146.052928 L146.038846,145.490725 L145.971754,144.567536 C146.045631,143.851594 146.095385,143.110783 146.096138,142.328522 C146.124031,118.416058 146.073523,94.4975652 146.1474,70.5775652 M110.272615,2.59246377 L110.274877,2.58869565 L110.277138,2.59246377 L110.272615,2.59246377" id="Fill-1" fill="#FBE61D" sketch:type="MSShapeGroup"></path>
            <path d="M144.097692,83.6966377 L140.270415,82.2451594 L80.8771385,82.2451594 L80.8771385,92.0083478 L144.097692,92.0083478 L144.097692,83.6966377" id="Fill-2" fill="#8A8B8A" sketch:type="MSShapeGroup"></path>
            <path d="M2.47713846,83.6966377 L6.30441538,82.2451594 L65.6976923,82.2451594 L65.6976923,92.0083478 L2.47713846,92.0083478 L2.47713846,83.6966377" id="Fill-3" fill="#8A8B8A" sketch:type="MSShapeGroup"></path>
            <path d="M133.500123,113.158029 C133.561938,110.596464 132.600031,109.769739 130.150031,109.808174 C123.772492,109.904638 117.397969,109.843594 111.018923,109.843594 C104.544892,109.843594 98.0648308,109.891072 91.5900462,109.816464 C89.3149385,109.787072 88.3191077,110.492464 88.3794154,112.956812 C88.5249077,119.028754 88.3944923,125.098435 88.4374615,131.16887 C88.4721385,136.616812 91.2010615,139.329101 96.6905692,139.354725 C106.203354,139.393913 115.721415,139.398435 125.231938,139.347188 C130.661892,139.323072 133.398354,136.533913 133.437554,131.06713 C133.482785,125.098435 133.341815,119.126725 133.500123,113.158029 M130.469662,132.697217 C130.362615,135.053043 128.817231,136.417101 126.477292,136.432174 C116.136031,136.490957 105.797031,136.490957 95.4595385,136.448 C92.7539846,136.434435 91.3269538,134.780232 91.2885077,132.205101 C91.2402615,129.001449 91.2334769,125.800812 91.2357385,122.554957 L130.5164,122.554957 C130.524692,125.918377 130.627215,129.312696 130.469662,132.697217" id="Fill-4" fill="#8A8B8A" sketch:type="MSShapeGroup"></path>
            <path d="M58.0167538,113.118087 C58.0808308,110.507536 56.987,109.778029 54.5927846,109.808174 C48.2137385,109.898609 41.8384615,109.843594 35.4646923,109.843594 C28.9876462,109.843594 22.5053231,109.898609 16.0312923,109.811942 C13.7169846,109.778029 12.8063385,110.573855 12.8628769,112.992232 C13.0008308,119.059652 12.8576,125.132348 12.9231846,131.202783 C12.9834923,136.675594 15.6920615,139.329101 21.2094615,139.354725 C30.6234923,139.392406 40.0337538,139.38487 49.4462769,139.354725 C55.0767538,139.340406 57.9051846,136.581391 57.9594615,131.028696 C58.0114769,125.056232 57.8697538,119.083768 58.0167538,113.118087 M54.9365385,132.836638 C54.8807538,135.13142 53.1785692,136.448 50.8326,136.451014 C40.5049077,136.485681 30.1742,136.485681 19.8487692,136.448 C17.4538,136.434435 15.9687231,134.996522 15.8239846,132.721333 C15.6212,129.447594 15.7591538,126.147478 15.7712154,122.554957 L55.0352923,122.554957 C55.0428308,125.986203 55.0300154,129.412174 54.9365385,132.836638" id="Fill-5" fill="#8A8B8A" sketch:type="MSShapeGroup"></path>
            <path d="M36.7922154,116.154435 C36.7922154,117.394899 35.7880923,118.397217 34.5487692,118.397217 C33.3094462,118.397217 32.3053231,117.394899 32.3053231,116.154435 C32.3053231,114.913971 33.3094462,113.911652 34.5487692,113.911652 C35.7880923,113.911652 36.7922154,114.913971 36.7922154,116.154435" id="Fill-6" fill="#FBE61D" sketch:type="MSShapeGroup"></path>
            <path d="M113.183969,116.154435 C113.183969,117.394899 112.179092,118.397217 110.939769,118.397217 C109.701954,118.397217 108.696323,117.394899 108.696323,116.154435 C108.696323,114.913971 109.701954,113.911652 110.939769,113.911652 C112.179092,113.911652 113.183969,114.913971 113.183969,116.154435" id="Fill-7" fill="#FBE61D" sketch:type="MSShapeGroup"></path>
            <path d="M67.4963692,85.319942 L67.1616615,85.7713623 C67.1842769,106.88713 67.1676923,128.005159 67.1676923,149.117159 L67.1676923,152.730783 L67.1714615,152.730783 L67.1714615,155.807072 L67.5235077,155.807072 L67.5235077,152.730783 L67.5204923,152.730783 L67.5204923,149.117159 C67.5204923,127.852928 67.5204923,106.587188 67.4963692,85.319942" id="Fill-8" fill="#CBCCCB" sketch:type="MSShapeGroup"></path>
            <path d="M67.1616615,85.7713623 L65.6976923,87.7466087 L65.6976923,92.0083478 L62.5390769,92.0083478 L49.3128462,109.854145 C51.0723231,109.847362 52.8325538,109.833043 54.5927846,109.808174 C54.6395231,109.80742 54.6855077,109.80742 54.7314923,109.80742 C57.0284615,109.80742 58.0793231,110.558783 58.0167538,113.118087 C57.8697538,119.083768 58.0114769,125.056232 57.9594615,131.028696 C57.9051846,136.581391 55.0767538,139.340406 49.4462769,139.354725 C44.492,139.370551 39.5384769,139.380348 34.5842,139.380348 C32.2012923,139.380348 29.8183846,139.378087 27.4347231,139.373565 L15.2548308,155.807072 L67.1714615,155.807072 L67.1714615,152.730783 L67.1676923,152.730783 L67.1676923,149.117159 C67.1676923,128.005159 67.1842769,106.88713 67.1616615,85.7713623" id="Fill-9" fill="#CABE4C" sketch:type="MSShapeGroup"></path>
            <path d="M65.6976923,87.7466087 L62.5390769,92.0083478 L65.6976923,92.0083478 L65.6976923,87.7466087" id="Fill-10" fill="#777776" sketch:type="MSShapeGroup"></path>
            <path d="M55.0352923,122.554957 L39.8995692,122.554957 L29.5846923,136.472116 C31.6215846,136.47513 33.6577231,136.476638 35.6946154,136.476638 C40.7401077,136.476638 45.7871077,136.468348 50.8326,136.451014 C53.1785692,136.448 54.8807538,135.13142 54.9365385,132.836638 C55.0300154,129.412174 55.0428308,125.986203 55.0352923,122.554957" id="Fill-11" fill="#CABE4C" sketch:type="MSShapeGroup"></path>
            <path d="M54.7314923,109.80742 C54.6855077,109.80742 54.6395231,109.80742 54.5927846,109.808174 C52.8325538,109.833043 51.0723231,109.847362 49.3128462,109.854145 L39.8995692,122.554957 L55.0352923,122.554957 C55.0428308,125.986203 55.0300154,129.412174 54.9365385,132.836638 C54.8807538,135.13142 53.1785692,136.448 50.8326,136.451014 C45.7871077,136.468348 40.7401077,136.476638 35.6946154,136.476638 C33.6577231,136.476638 31.6215846,136.47513 29.5846923,136.472116 L27.4347231,139.373565 C29.8183846,139.378087 32.2012923,139.380348 34.5842,139.380348 C39.5384769,139.380348 44.492,139.370551 49.4462769,139.354725 C55.0767538,139.340406 57.9051846,136.581391 57.9594615,131.028696 C58.0114769,125.056232 57.8697538,119.083768 58.0167538,113.118087 C58.0793231,110.558783 57.0284615,109.80742 54.7314923,109.80742" id="Fill-12" fill="#777776" sketch:type="MSShapeGroup"></path>
            <path d="M140.577231,154.149855 L140.224431,154.149855 C138.186031,155.241855 135.644062,155.807072 132.592492,155.807072 L132.944538,155.807072 C135.996862,155.807072 138.538831,155.241855 140.577231,154.149855 M126.049108,6.31913043 L125.728723,6.75095652 C125.761892,7.51889855 125.718923,8.32904348 125.611877,9.18365217 C124.326569,19.4223768 123.565185,29.7251594 122.198462,39.9555942 C120.375662,53.5426667 128.784815,64.9088116 142.361585,66.2208696 C145.553369,66.5328696 146.1572,67.7605217 146.1474,70.5775652 C146.073523,94.4975652 146.124031,118.416058 146.096138,142.328522 C146.095385,143.110783 146.045631,143.851594 145.971754,144.567536 L146.038846,145.490725 L145.758415,146.052928 C145.163631,149.234725 143.762231,151.662145 141.5806,153.294493 L141.0318,154.149855 L141.3846,154.149855 L141.9334,153.294493 C144.115031,151.662145 145.516431,149.234725 146.111215,146.052928 L146.390892,145.490725 L146.324554,144.567536 C146.397677,143.851594 146.448185,143.110783 146.448938,142.328522 C146.477585,118.416058 146.425569,94.4975652 146.500954,70.5775652 C146.509246,67.7605217 145.906169,66.5328696 142.714385,66.2208696 C129.137615,64.9088116 120.726954,53.5426667 122.551262,39.9555942 C123.918738,29.7251594 124.679369,19.4223768 125.964677,9.18365217 C126.092831,8.16626087 126.122985,7.21594203 126.049108,6.31913043" id="Fill-13" fill="#CBCCCB" sketch:type="MSShapeGroup"></path>
            <path d="M130.5164,122.554957 L91.2357385,122.554957 C91.2334769,125.800812 91.2402615,129.001449 91.2885077,132.205101 C91.3269538,134.780232 92.7539846,136.434435 95.4595385,136.448 C100.240431,136.467594 105.019062,136.478899 109.800708,136.478899 C115.358062,136.478899 120.917677,136.463826 126.477292,136.432174 C128.817231,136.417101 130.362615,135.053043 130.469662,132.697217 C130.627215,129.312696 130.524692,125.918377 130.5164,122.554957 M121.712985,109.862435 C124.525585,109.862435 127.337431,109.85113 130.150031,109.808174 C130.203554,109.80742 130.256323,109.806667 130.308338,109.806667 C132.641492,109.806667 133.560431,110.652232 133.500123,113.158029 C133.341815,119.126725 133.482785,125.098435 133.437554,131.06713 C133.398354,136.533913 130.661892,139.323072 125.231938,139.347188 C120.400538,139.373565 115.567631,139.38487 110.733215,139.38487 C106.052585,139.38487 101.3712,139.374319 96.6905692,139.354725 C91.2010615,139.329101 88.4721385,136.616812 88.4374615,131.16887 C88.3944923,125.098435 88.5249077,119.028754 88.3794154,112.956812 C88.3198615,110.540696 89.2757385,109.814957 91.4581231,109.814957 C91.5018462,109.814957 91.5455692,109.81571 91.5900462,109.816464 C94.4380769,109.849623 97.2861077,109.858667 100.134138,109.858667 C103.7624,109.858667 107.392169,109.843594 111.018923,109.843594 C114.584615,109.843594 118.1488,109.862435 121.712985,109.862435 M80.8771385,92.0083478 L80.8771385,82.2451594 L140.270415,82.2451594 L144.097692,83.6966377 L144.097692,92.0083478 L80.8771385,92.0083478 M125.728723,6.75095652 L79.6928462,68.8653333 C79.6536462,89.6517681 79.6461077,110.443478 79.6491231,131.230667 L79.7772769,131.230667 L79.7772769,155.807072 L132.592492,155.807072 C135.644062,155.807072 138.186031,155.241855 140.224431,154.149855 L141.0318,154.149855 L141.5806,153.294493 C143.762231,151.662145 145.163631,149.234725 145.758415,146.052928 L146.038846,145.490725 L145.971754,144.567536 C146.045631,143.851594 146.095385,143.110783 146.096138,142.328522 C146.124031,118.416058 146.073523,94.4975652 146.1474,70.5775652 C146.1572,67.7605217 145.553369,66.5328696 142.361585,66.2208696 C128.784815,64.9088116 120.375662,53.5426667 122.198462,39.9555942 C123.565185,29.7251594 124.326569,19.4223768 125.611877,9.18365217 C125.718923,8.32904348 125.761892,7.51889855 125.728723,6.75095652" id="Fill-14" fill="#CABE4C" sketch:type="MSShapeGroup"></path>
            <path d="M140.270415,82.2451594 L80.8771385,82.2451594 L80.8771385,92.0083478 L144.097692,92.0083478 L144.097692,83.6966377 L140.270415,82.2451594" id="Fill-15" fill="#777776" sketch:type="MSShapeGroup"></path>
            <path d="M109.800708,136.478899 C105.019062,136.478899 100.240431,136.467594 95.4595385,136.448 C92.7539846,136.434435 91.3269538,134.780232 91.2885077,132.205101 C91.2402615,129.001449 91.2334769,125.800812 91.2357385,122.554957 L130.5164,122.554957 C130.524692,125.918377 130.627215,129.312696 130.469662,132.697217 C130.362615,135.053043 128.817231,136.417101 126.477292,136.432174 C120.917677,136.463826 115.358062,136.478899 109.800708,136.478899 M110.939769,118.397217 C109.701954,118.397217 108.696323,117.394899 108.696323,116.154435 C108.696323,114.913971 109.701954,113.911652 110.939769,113.911652 C112.179092,113.911652 113.183969,114.913971 113.183969,116.154435 C113.183969,117.394899 112.179092,118.397217 110.939769,118.397217 M130.308338,109.806667 C130.256323,109.806667 130.203554,109.80742 130.150031,109.808174 C127.337431,109.85113 124.525585,109.862435 121.712985,109.862435 C118.1488,109.862435 114.584615,109.843594 111.018923,109.843594 C107.392169,109.843594 103.7624,109.858667 100.134138,109.858667 C97.2861077,109.858667 94.4380769,109.849623 91.5900462,109.816464 C91.5455692,109.81571 91.5018462,109.814957 91.4581231,109.814957 C89.2757385,109.814957 88.3198615,110.540696 88.3794154,112.956812 C88.5249077,119.028754 88.3944923,125.098435 88.4374615,131.16887 C88.4721385,136.616812 91.2010615,139.329101 96.6905692,139.354725 C101.3712,139.374319 106.052585,139.38487 110.733215,139.38487 C115.567631,139.38487 120.400538,139.373565 125.231938,139.347188 C130.661892,139.323072 133.398354,136.533913 133.437554,131.06713 C133.482785,125.098435 133.341815,119.126725 133.500123,113.158029 C133.560431,110.652232 132.641492,109.806667 130.308338,109.806667" id="Fill-16" fill="#777776" sketch:type="MSShapeGroup"></path>
            <path d="M110.939769,113.911652 C109.701954,113.911652 108.696323,114.913971 108.696323,116.154435 C108.696323,117.394899 109.701954,118.397217 110.939769,118.397217 C112.179092,118.397217 113.183969,117.394899 113.183969,116.154435 C113.183969,114.913971 112.179092,113.911652 110.939769,113.911652" id="Fill-17" fill="#CABE4C" sketch:type="MSShapeGroup"></path>
        </g>
    </g>
</svg>