<?xml version="1.0" encoding="UTF-8" standalone="no"?>
<svg width="148px" height="149px" viewBox="0 0 148 149" version="1.1" xmlns="http://www.w3.org/2000/svg" xmlns:xlink="http://www.w3.org/1999/xlink" xmlns:sketch="http://www.bohemiancoding.com/sketch/ns">
    <!-- Generator: Sketch 3.3.3 (12081) - http://www.bohemiancoding.com/sketch -->
    <title>Untitled 2</title>
    <desc>Created with Sketch.</desc>
    <defs></defs>
    <g id="Page-1" stroke="none" stroke-width="1" fill="none" fill-rule="evenodd" sketch:type="MSPage">
        <g id="Imported-Layers" sketch:type="MSLayerGroup">
            <path d="M147.961168,13.9010394 C147.366238,16.0061232 146.711228,18.0972611 146.184436,20.2206946 C143.872851,29.4924581 141.60303,38.7825714 139.31196,48.0594729 C139.202792,48.500601 139.040139,48.9263153 138.825465,49.6037882 C137.390891,48.2503103 136.135822,47.081798 134.896139,45.8993399 C133.747307,44.8012906 132.613129,43.6907635 131.476752,42.5795025 C129.919089,41.0630788 129.727861,41.0557389 128.252257,42.5912463 C116.558059,54.7842906 104.864594,66.975133 93.1674653,79.1667094 C89.3707525,83.1273202 85.5718416,87.0864631 81.7670693,91.037532 C78.7916832,94.1342365 75.004495,94.1459803 72.0261782,91.0573498 C64.2759604,83.0179557 56.533802,74.9748916 48.7923762,66.9296256 C47.1856238,65.259798 47.0705941,65.2575961 45.4191485,67.0000887 C34.1242574,78.9076108 22.8213069,90.8055911 11.5425347,102.728527 C9.6500396,104.726448 7.4219802,105.569803 4.7770297,104.763882 C2.24491089,103.995394 0.787623762,102.161153 0.414693069,99.5408079 C0.117227723,97.4371921 0.902653465,95.6858916 2.33869307,94.1724039 C11.8817624,84.1196749 21.417505,74.0618079 30.9569109,64.0046749 C34.665703,60.0939754 38.3591089,56.1685961 42.0832871,52.2703744 C45.1934851,49.0114581 48.8927525,48.9754926 52.0139406,52.1977094 C59.8484158,60.2928867 67.6550495,68.4078818 75.477802,76.5074631 C76.8156634,77.8917685 76.9973663,77.8858966 78.3308317,76.4979212 C91.9614851,62.2952118 105.587743,48.0888325 119.211802,33.8809852 C120.685941,32.3476798 120.690337,32.2221675 119.187624,30.765931 C117.115624,28.75333 115.025307,26.7568768 112.951842,24.7538177 C112.614079,24.4279261 112.307089,24.0697389 111.780297,23.5133744 C114.124119,22.8028719 116.247406,22.1400788 118.384614,21.5220591 C127.689564,18.8202414 136.991584,16.1279655 146.308257,13.4540394 C146.827723,13.3057734 147.409465,13.3644926 147.961168,13.3211872 L147.961168,13.9010394" id="Fill-1" fill="#FBE61D" sketch:type="MSShapeGroup"></path>
            <path d="M119.970851,148.908985 C119.853624,146.569759 119.63895,144.232 119.635287,141.894241 C119.612574,118.877778 119.619901,95.8605813 119.619901,72.8426502 C119.619901,70.4329606 119.557624,68.020335 119.695366,65.6201872 C119.740792,64.7929803 120.128376,63.8175074 120.685941,63.2060936 C123.345545,60.2965567 126.149485,57.514 128.836198,54.6301527 C129.738119,53.6583498 130.417307,53.642202 131.337545,54.5633596 C133.348733,56.5671527 135.514515,58.4241478 137.417267,60.5240936 C138.100119,61.2852414 138.528733,62.5660542 138.535327,63.6141921 C138.61299,75.8923793 138.591743,88.1720345 138.593941,100.454626 C138.593941,115.480138 138.600535,130.506384 138.574158,145.533365 C138.56903,146.660039 138.298673,147.784512 138.150673,148.908985 L119.970851,148.908985" id="Fill-2" fill="#8A8B8A" sketch:type="MSShapeGroup"></path>
            <path d="M96.5949109,148.908985 C96.4491089,148.171325 96.1670297,147.436601 96.1670297,146.697473 C96.1369901,128.00568 96.123802,109.312419 96.1809505,90.6169557 C96.1875446,89.6121232 96.5809901,88.354064 97.2491881,87.6398916 C102.777208,81.7371429 108.406337,75.9334828 114.009822,70.1004631 C114.237683,69.8626502 114.489723,69.6417192 114.986475,69.1646256 C115.030436,69.9742167 115.084653,70.5107635 115.084653,71.0473103 C115.084653,92.7249754 115.080257,114.404842 115.074396,136.084709 C115.074396,139.699611 115.11103,143.311576 115.060475,146.92501 C115.047287,147.590005 114.685347,148.248394 114.486059,148.908985 L96.5949109,148.908985" id="Fill-3" fill="#FBE61D" sketch:type="MSShapeGroup"></path>
            <path d="M49.8474257,148.908985 C49.6767129,148.329133 49.3645941,147.745611 49.3645941,147.167227 C49.3382178,125.347167 49.3426139,103.52564 49.3462772,81.7055813 C49.3462772,81.3415222 49.3829109,80.9759951 49.4048911,80.5671626 C51.3391485,82.4388374 53.2243168,84.1894039 55.0296238,86.0207094 C59.1824158,90.2404187 63.3198218,94.46967 67.3978812,98.7591084 C67.8968317,99.2824433 68.2184752,100.192591 68.2192079,100.925847 C68.2690297,112.732079 68.2521782,124.53097 68.2499802,136.329862 C68.2499802,139.897054 68.2763564,143.464246 68.2309307,147.027034 C68.2192079,147.65533 67.9107525,148.279956 67.7378416,148.908985 L49.8474257,148.908985" id="Fill-4" fill="#FBE61D" sketch:type="MSShapeGroup"></path>
            <path d="M26.4736832,148.908985 C26.2971089,148.335005 25.9703366,147.758823 25.9688713,147.18264 C25.9395644,132.113823 25.9527525,117.041335 25.9263762,101.968847 C25.9234455,100.782719 26.2714653,99.8725714 27.0964554,99.010133 C32.6200792,93.2424384 38.1048713,87.4387783 43.6050495,81.6475961 C43.8944554,81.3415222 44.2197624,81.0640739 44.7077228,80.610468 C44.7714653,81.1734384 44.8520594,81.5176798 44.8520594,81.8699951 C44.8557228,103.632803 44.8601188,125.397813 44.8403366,147.160621 C44.8388713,147.744143 44.5304158,148.329133 44.361901,148.908985 L26.4736832,148.908985" id="Fill-5" fill="#8A8B8A" sketch:type="MSShapeGroup"></path>
            <path d="M73.2204356,148.908985 C73.0577822,148.22564 72.7551881,147.548167 72.7529901,146.872163 C72.7251485,132.329616 72.742,117.787803 72.708297,103.248192 C72.708297,102.034906 72.9793861,101.612862 74.2688911,101.835261 C79.8350099,102.793118 84.4589109,100.966951 88.2966535,96.9057833 C89.2813663,95.8605813 90.3356832,94.8836404 91.5658416,93.6674187 C91.6068713,94.3074581 91.6559604,94.7456502 91.6559604,95.1867783 C91.6603564,112.376094 91.6640198,129.565409 91.6369109,146.752522 C91.6325149,147.471833 91.2954851,148.191143 91.1137822,148.908985 L73.2204356,148.908985" id="Fill-6" fill="#8A8B8A" sketch:type="MSShapeGroup"></path>
            <path d="M3.09774257,148.908985 C2.9079802,148.341611 2.55263366,147.777172 2.55263366,147.210532 C2.51453465,136.429685 2.52332673,125.651039 2.50281188,114.87166 C2.50281188,113.798567 2.6940396,113.356704 3.99673267,113.562222 C9.22069307,114.39897 13.7793861,112.95668 17.5130891,109.132591 C18.7110099,107.903892 19.8832871,106.645833 21.350099,105.105921 C21.4028515,106.010931 21.457802,106.507108 21.457802,107.006956 C21.4585347,120.339887 21.4636634,133.665478 21.4328911,146.996207 C21.4328911,147.634044 21.1442178,148.274084 20.9896238,148.908985 L3.09774257,148.908985" id="Fill-7" fill="#FBE61D" sketch:type="MSShapeGroup"></path>
            <path d="M26.1322574,4.94562562 L26.0465347,4.94562562 L21.2226139,7.55496059 L20.4965347,4.68946305 L26.5594059,1.43862069 L29.7611881,1.43862069 L29.7611881,29.2406995 L26.1322574,29.2406995 L26.1322574,4.94562562" id="Fill-8" fill="#8A8B8A" sketch:type="MSShapeGroup"></path>
            <path d="M41.4605149,27.0159754 C41.4605149,25.4334926 42.5280198,24.3222315 44.0226733,24.3222315 C45.5173267,24.3222315 46.541604,25.4334926 46.541604,27.0159754 C46.541604,28.5558867 45.5598218,29.7111872 43.9794455,29.7111872 C42.4855248,29.7111872 41.4605149,28.5558867 41.4605149,27.0159754" id="Fill-9" fill="#8A8B8A" sketch:type="MSShapeGroup"></path>
            <path d="M67.120198,4.09052709 C66.3523564,4.04795567 65.3698416,4.09052709 64.3023366,4.26228079 C58.4109109,5.2450936 55.2941188,9.56535961 54.6537624,14.1425222 L54.7819802,14.1425222 C56.1051881,12.3882857 58.4109109,10.9335172 61.4844752,10.9335172 C66.3948515,10.9335172 69.8530693,14.4838276 69.8530693,19.9168227 C69.8530693,25.0055764 66.3948515,29.7111872 60.6309109,29.7111872 C54.6962574,29.7111872 50.8108911,25.0921872 50.8108911,17.8631182 C50.8108911,12.3882857 52.7744554,8.0680197 55.5073267,5.33097044 C57.8130495,3.06440887 60.8873465,1.65294581 64.3880594,1.22502956 C65.4980594,1.05400985 66.4373465,1.01143842 67.120198,1.01143842 L67.120198,4.09052709 L67.120198,4.09052709 Z M66.0526931,20.1304138 C66.0526931,16.1521872 63.790198,13.7571773 60.3319802,13.7571773 C58.0687525,13.7571773 55.9769703,15.1686404 54.9526931,17.1790394 C54.6962574,17.6062217 54.5255446,18.1625862 54.5255446,18.847399 C54.6105347,23.4238276 56.7030495,26.8031182 60.6309109,26.8031182 C63.8759208,26.8031182 66.0526931,24.1079064 66.0526931,20.1304138 L66.0526931,20.1304138 Z" id="Fill-10" fill="#8A8B8A" sketch:type="MSShapeGroup"></path>
            <path d="M70.6223762,35.2285911 C72.3302376,35.1001429 73.8241584,34.6303892 74.7216832,33.6461084 C75.7459604,32.4482365 76.1298812,30.8231823 76.1298812,25.8614089 L76.1298812,8.53924138 L79.8870297,8.53924138 L79.8870297,27.3161773 C79.8870297,31.3362414 79.2466733,33.9455764 77.4105941,35.8267931 C75.7459604,37.4958867 73.0130891,38.1799655 71.0070297,38.1799655 L70.6223762,35.2285911 L70.6223762,35.2285911 Z M80.3141782,2.72163547 C80.3566733,3.96207882 79.4606139,5.03223645 77.9659604,5.03223645 C76.5570297,5.03223645 75.6602376,3.96207882 75.6602376,2.72163547 C75.6602376,1.39604926 76.6420198,0.369197044 78.0509505,0.369197044 C79.4173861,0.369197044 80.3141782,1.39604926 80.3141782,2.72163547 L80.3141782,2.72163547 Z" id="Fill-11" fill="#8A8B8A" sketch:type="MSShapeGroup"></path>
            <path d="M91.8427921,2.59318719 L91.8427921,8.53924138 L97.2220792,8.53924138 L97.2220792,11.4047389 L91.8427921,11.4047389 L91.8427921,22.5679951 C91.8427921,25.1347586 92.5681386,26.5887931 94.6599208,26.5887931 C95.6424356,26.5887931 96.3677822,26.4603448 96.8374257,26.3318966 L97.0081386,29.1555567 C96.2827921,29.4542906 95.130297,29.6686158 93.6781386,29.6686158 C91.9277822,29.6686158 90.5188515,29.1122512 89.6220594,28.086133 C88.5545545,26.9734039 88.1706337,25.1347586 88.1706337,22.6964433 L88.1706337,11.4047389 L84.9681188,11.4047389 L84.9681188,8.53924138 L88.1706337,8.53924138 L88.1706337,3.57746798 L91.8427921,2.59318719" id="Fill-12" fill="#8A8B8A" sketch:type="MSShapeGroup"></path>
            <path d="M64.3763366,83.1185123 L64.3580198,83.1368621 C66.900396,85.7755567 69.4413069,88.4142512 71.9836832,91.0573498 C73.4688119,92.5972611 75.1561584,93.3664828 76.8427723,93.3664828 L76.8640198,93.3664828 C75.184,93.3598768 73.5054455,92.5906552 72.0261782,91.0573498 C69.4750099,88.4113153 66.9253069,85.7645468 64.3763366,83.1185123 M129.834832,41.4410837 L129.814317,41.4410837 C130.234139,41.4528276 130.670079,41.8337685 131.434257,42.5795025 C132.572099,43.6907635 133.706277,44.8012906 134.855842,45.8993399 C136.094059,47.081798 137.349129,48.2503103 138.78297,49.6037882 C138.786634,49.5927783 138.789564,49.5832365 138.793228,49.5729606 C137.371842,48.2334286 136.126297,47.0729901 134.896139,45.8993399 C133.747307,44.8012906 132.613129,43.6907635 131.476752,42.5795025 C130.699386,41.8220246 130.26198,41.4410837 129.834832,41.4410837 M118.620535,30.2169064 L118.599287,30.2374581 C118.781723,30.4136158 118.963426,30.5897734 119.145129,30.765931 C120.648574,32.2221675 120.643446,32.3476798 119.170772,33.8809852 C105.54598,48.0888325 91.9182574,62.2952118 78.2890693,76.4979212 C77.6325941,77.180532 77.2552673,77.5291773 76.881604,77.5416552 C76.888198,77.5416552 76.8955248,77.5431232 76.9028515,77.5431232 C77.2831089,77.5431232 77.661901,77.1937438 78.3308317,76.4979212 C91.9614851,62.2952118 105.587743,48.0888325 119.211802,33.8809852 C120.685941,32.3476798 120.690337,32.2221675 119.187624,30.765931 C118.998594,30.5824335 118.809564,30.39967 118.620535,30.2169064 M147.920139,13.3211872 C147.367703,13.3644926 146.787426,13.3057734 146.26503,13.4540394 C141.309228,14.8772463 136.360752,16.315133 131.409347,17.7449458 L131.406416,17.7478818 C136.37101,16.312931 141.337802,14.8809163 146.308257,13.4540394 C146.815267,13.3094433 147.380158,13.3615567 147.920139,13.3241232 L147.920139,13.3211872" id="Fill-13" fill="#CBCCCB" sketch:type="MSShapeGroup"></path>
            <path d="M147.920139,13.3241232 C147.380158,13.3615567 146.815267,13.3094433 146.308257,13.4540394 C141.337802,14.8809163 136.37101,16.312931 131.406416,17.7478818 L118.620535,30.2169064 C118.809564,30.39967 118.998594,30.5824335 119.187624,30.765931 C120.690337,32.2221675 120.685941,32.3476798 119.211802,33.8809852 C105.587743,48.0888325 91.9614851,62.2952118 78.3308317,76.4979212 C77.661901,77.1937438 77.2831089,77.5431232 76.9028515,77.5431232 C76.8955248,77.5431232 76.888198,77.5416552 76.881604,77.5416552 C76.8742772,77.5416552 76.8676832,77.5431232 76.8603564,77.5431232 C76.482297,77.5431232 76.1020396,77.1981478 75.4338416,76.5074631 C74.7436634,75.7918227 74.0512871,75.0732463 73.3581782,74.3583399 L64.3763366,83.1185123 C66.9253069,85.7645468 69.4750099,88.4113153 72.0261782,91.0573498 C73.5054455,92.5906552 75.184,93.3598768 76.8640198,93.3664828 C78.552099,93.3598768 80.2401782,92.5833153 81.7267723,91.037532 C85.5308119,87.0864631 89.3275248,83.1273202 93.125703,79.1667094 C104.822832,66.975133 116.514832,54.7842906 128.210495,42.5912463 C128.94903,41.8227586 129.365921,41.4410837 129.793069,41.4410837 L129.814317,41.4410837 L129.834832,41.4410837 C130.26198,41.4410837 130.699386,41.8220246 131.476752,42.5795025 C132.613129,43.6907635 133.747307,44.8012906 134.896139,45.8993399 C136.126297,47.0729901 137.371842,48.2334286 138.793228,49.5729606 C139.002772,48.9138374 139.16396,48.4932611 139.270931,48.0594729 C141.561267,38.7825714 143.831822,29.4924581 146.141208,20.2206946 C146.668733,18.0972611 147.323743,16.0061232 147.920139,13.9010394 L147.920139,13.3241232" id="Fill-14" fill="#CABE4C" sketch:type="MSShapeGroup"></path>
            <path d="M130.064891,53.8866207 C129.658257,53.8866207 129.25602,54.1339754 128.794436,54.6301527 C126.107723,57.514 123.302317,60.2965567 120.643446,63.2060936 C120.086614,63.8175074 119.699762,64.7929803 119.652871,65.6201872 C119.515129,68.020335 119.579604,70.4329606 119.579604,72.8426502 C119.579604,95.8605813 119.570079,118.877778 119.594257,141.894241 C119.597188,144.232 119.811129,146.569759 119.928356,148.908985 L119.970851,148.908985 C119.853624,146.569759 119.63895,144.232 119.635287,141.894241 C119.612574,118.877778 119.619901,95.8605813 119.619901,72.8426502 C119.619901,70.4329606 119.557624,68.020335 119.695366,65.6201872 C119.740792,64.7929803 120.128376,63.8175074 120.685941,63.2060936 C123.345545,60.2965567 126.149485,57.514 128.836198,54.6301527 C129.28899,54.1420493 129.686099,53.8954286 130.085406,53.8866207 L130.064891,53.8866207" id="Fill-15" fill="#CBCCCB" sketch:type="MSShapeGroup"></path>
            <path d="M130.085406,53.8866207 C129.686099,53.8954286 129.28899,54.1420493 128.836198,54.6301527 C126.149485,57.514 123.345545,60.2965567 120.685941,63.2060936 C120.128376,63.8175074 119.740792,64.7929803 119.695366,65.6201872 C119.557624,68.020335 119.619901,70.4329606 119.619901,72.8426502 C119.619901,95.8605813 119.612574,118.877778 119.635287,141.894241 C119.63895,144.232 119.853624,146.569759 119.970851,148.908985 L138.108911,148.908985 C138.255446,147.784512 138.527267,146.660039 138.530931,145.533365 C138.558772,130.506384 138.552178,115.480138 138.552178,100.454626 C138.54998,88.1720345 138.569762,75.8923793 138.492832,63.6141921 C138.487703,62.5660542 138.057624,61.2852414 137.374772,60.5240936 C135.473485,58.4241478 133.306238,56.5671527 131.295782,54.5633596 C130.85398,54.1207635 130.467129,53.8954286 130.085406,53.8866207" id="Fill-16" fill="#777776" sketch:type="MSShapeGroup"></path>
            <path d="M114.944713,69.1646256 C114.447228,69.6417192 114.195188,69.8626502 113.969525,70.1004631 C108.363842,75.9334828 102.736178,81.7371429 97.2081584,87.6398916 C96.5392277,88.354064 96.1457822,89.6121232 96.1406535,90.6169557 C96.0805743,109.312419 96.0966931,128.00568 96.1245347,146.697473 C96.1245347,147.436601 96.4051485,148.171325 96.5531485,148.908985 L96.5949109,148.908985 C96.4491089,148.171325 96.1670297,147.436601 96.1670297,146.697473 C96.1369901,128.00568 96.123802,109.312419 96.1809505,90.6169557 C96.1875446,89.6121232 96.5809901,88.354064 97.2491881,87.6398916 C102.777208,81.7371429 108.406337,75.9334828 114.009822,70.1004631 C114.231822,69.8685222 114.475802,69.6534631 114.946911,69.2020591 C114.946178,69.1903153 114.945446,69.1771034 114.944713,69.1646256" id="Fill-17" fill="#CBCCCB" sketch:type="MSShapeGroup"></path>
            <path d="M114.946911,69.2020591 C114.475802,69.6534631 114.231822,69.8685222 114.009822,70.1004631 C108.406337,75.9334828 102.777208,81.7371429 97.2491881,87.6398916 C96.5809901,88.354064 96.1875446,89.6121232 96.1809505,90.6169557 C96.123802,109.312419 96.1369901,128.00568 96.1670297,146.697473 C96.1670297,147.436601 96.4491089,148.171325 96.5949109,148.908985 L114.443564,148.908985 C114.643584,148.248394 115.005525,147.590005 115.019446,146.92501 C115.070733,143.311576 115.031901,139.699611 115.031901,136.084709 C115.038495,114.404842 115.042891,92.7249754 115.042891,71.0473103 C115.042891,70.5188374 114.990871,69.9910985 114.946911,69.2020591" id="Fill-18" fill="#CABE4C" sketch:type="MSShapeGroup"></path>
            <path d="M49.3440792,97.7762956 L49.3096436,97.8100591 C49.3074455,114.265384 49.3023168,130.714837 49.322099,147.167227 C49.322099,147.745611 49.6356832,148.329133 49.806396,148.908985 L49.8474257,148.908985 C49.6767129,148.329133 49.3645941,147.745611 49.3645941,147.167227 C49.3448119,130.703828 49.3426139,114.239695 49.3440792,97.7762956" id="Fill-19" fill="#CBCCCB" sketch:type="MSShapeGroup"></path>
            <path d="M58.1193069,89.2201724 L49.3440792,97.7762956 C49.3426139,114.239695 49.3448119,130.703828 49.3645941,147.167227 C49.3645941,147.745611 49.6767129,148.329133 49.8474257,148.908985 L67.6960792,148.908985 C67.8697228,148.279956 68.1789109,147.65533 68.1891683,147.027034 C68.2345941,143.464246 68.2082178,139.897054 68.2082178,136.329862 C68.2118812,124.53097 68.228,112.732079 68.1789109,100.925847 C68.1781782,100.192591 67.853604,99.2824433 67.3575842,98.7591084 C64.3074653,95.5515714 61.2192475,92.380734 58.1193069,89.2201724" id="Fill-20" fill="#CABE4C" sketch:type="MSShapeGroup"></path>
            <path d="M25.9446931,120.596783 L25.9029307,120.637153 C25.9065941,129.489074 25.9102574,138.337325 25.9278416,147.18264 C25.9285743,147.758823 26.2553465,148.335005 26.4304554,148.908985 L26.4736832,148.908985 C26.2971089,148.335005 25.9703366,147.758823 25.9688713,147.18264 C25.9520198,138.321911 25.9490891,129.45898 25.9446931,120.596783" id="Fill-21" fill="#CBCCCB" sketch:type="MSShapeGroup"></path>
            <path d="M44.805901,102.200054 L25.9446931,120.596783 C25.9490891,129.45898 25.9520198,138.321911 25.9688713,147.18264 C25.9703366,147.758823 26.2971089,148.335005 26.4736832,148.908985 L44.321604,148.908985 C44.4893861,148.329133 44.7963762,147.744143 44.7993069,147.160621 C44.812495,132.175478 44.8073663,117.189601 44.805901,102.200054" id="Fill-22" fill="#777776" sketch:type="MSShapeGroup"></path>
            <path d="M73.6563762,101.778744 C72.8526337,101.77801 72.665802,102.23969 72.665802,103.248192 C72.7024356,117.787803 72.6833861,132.329616 72.710495,146.872163 C72.7141584,147.548167 73.0160198,148.22564 73.1779406,148.908985 L73.2204356,148.908985 C73.0577822,148.22564 72.7551881,147.548167 72.7529901,146.872163 C72.7251485,132.329616 72.742,117.787803 72.708297,103.248192 C72.708297,102.248498 72.892198,101.786818 73.6776238,101.778744 L73.6563762,101.778744 M91.5218812,93.6674187 C90.2931881,94.8836404 89.2403366,95.8605813 88.2541584,96.9057833 C85.0963366,100.249108 81.4029307,102.077478 77.0904158,102.084818 L77.105802,102.084818 C81.4300396,102.084818 85.1307723,100.256448 88.2966535,96.9057833 C89.2711089,95.8715911 90.3122376,94.9056601 91.5248119,93.7077882 C91.5240792,93.6938424 91.5226139,93.6813645 91.5218812,93.6674187" id="Fill-23" fill="#CBCCCB" sketch:type="MSShapeGroup"></path>
            <path d="M91.5248119,93.7077882 C90.3122376,94.9056601 89.2711089,95.8715911 88.2966535,96.9057833 C85.1307723,100.256448 81.4300396,102.084818 77.105802,102.084818 L77.0904158,102.084818 L77.0647723,102.084818 C76.1474653,102.084818 75.2023168,102.003345 74.2285941,101.835261 C74.0183168,101.799296 73.8358812,101.780212 73.6776238,101.778744 C72.892198,101.786818 72.708297,102.248498 72.708297,103.248192 C72.742,117.787803 72.7251485,132.329616 72.7529901,146.872163 C72.7551881,147.548167 73.0577822,148.22564 73.2204356,148.908985 L91.0720198,148.908985 C91.2537228,148.191143 91.5922178,147.471833 91.5936832,146.752522 C91.6237228,129.565409 91.6178614,112.376094 91.614198,95.1867783 C91.614198,94.7551921 91.5680396,94.3265419 91.5248119,93.7077882" id="Fill-24" fill="#777776" sketch:type="MSShapeGroup"></path>
            <path d="M2.54091089,143.418739 L2.50354455,143.454704 C2.50940594,144.706158 2.5050099,145.958345 2.51013861,147.210532 C2.51233663,147.777172 2.86621782,148.341611 3.05744554,148.908985 L3.09774257,148.908985 C2.9079802,148.341611 2.55263366,147.777172 2.55263366,147.210532 C2.54823762,145.947335 2.54457426,144.68267 2.54091089,143.418739" id="Fill-25" fill="#CBCCCB" sketch:type="MSShapeGroup"></path>
            <path d="M21.4050495,125.022744 L2.54091089,143.418739 C2.54457426,144.68267 2.54823762,145.947335 2.55263366,147.210532 C2.55263366,147.777172 2.9079802,148.341611 3.09774257,148.908985 L20.9485941,148.908985 C21.1024554,148.274084 21.3918614,147.634044 21.3918614,146.996207 C21.4079802,139.671719 21.4035842,132.347232 21.4050495,125.022744" id="Fill-26" fill="#CABE4C" sketch:type="MSShapeGroup"></path>
        </g>
    </g>
</svg>