<?xml version="1.0" encoding="utf-8"?>
<!-- Generator: Adobe Illustrator 16.0.0, SVG Export Plug-In . SVG Version: 6.00 Build 0)  -->
<!DOCTYPE svg PUBLIC "-//W3C//DTD SVG 1.1//EN" "http://www.w3.org/Graphics/SVG/1.1/DTD/svg11.dtd">
<svg version="1.1" id="Layer_1" xmlns:sketch="http://www.bohemiancoding.com/sketch/ns"
	 xmlns="http://www.w3.org/2000/svg" xmlns:xlink="http://www.w3.org/1999/xlink" x="0px" y="0px" width="177px" height="31px"
	 viewBox="0 0 177 31" enable-background="new 0 0 177 31" xml:space="preserve">
<title>Imported Layers</title>
<desc>Created with Sketch.</desc>
<g>
	<ellipse fill-rule="evenodd" clip-rule="evenodd" fill="#FFFFFF" cx="47.851" cy="15.701" rx="24.475" ry="14.133"/>
	<path fill-rule="evenodd" clip-rule="evenodd" fill="#F05D22" d="M48.255,1.763c-5.886-0.08-12.339,1.044-17.449,4.052
		c-3.413,1.989-6.843,5.275-6.905,9.456c-0.079,4.194,3.259,7.596,6.594,9.68c5.028,3.172,11.432,4.508,17.317,4.6
		c5.881,0.096,12.338-1.047,17.454-4.035c3.397-2.002,6.847-5.287,6.917-9.473c0.059-4.199-3.275-7.58-6.609-9.681
		C60.553,3.201,54.137,1.866,48.255,1.763 M47.696,0.614l-0.013-0.008l1.177,0.013v0.003c5.936,0.175,12.289,1.588,17.338,4.762
		c3.702,2.328,7.215,6.046,7.14,10.682c-0.07,4.613-3.702,8.227-7.467,10.439c-5.318,3.111-11.97,4.297-18.075,4.201
		c-6.098-0.1-12.712-1.508-17.922-4.781c-3.712-2.32-7.223-6.047-7.136-10.663c0.066-4.629,3.682-8.246,7.472-10.447
		C35.353,1.796,41.749,0.594,47.696,0.614z"/>
</g>
<path fill-rule="evenodd" clip-rule="evenodd" fill="#FFFFFF" d="M86.94,0l3.824,0.068c5.64,0.089,8.805,0.912,9.534,2.505
	c0.135,0.004,0.255,0.432,0.352,1.292c-0.018,1.071-0.865,3.188-2.549,6.329c-0.88,0.851-2.366,1.259-4.458,1.232l-5.732-0.094
	c-0.162,0.15-1.328,2.555-3.494,7.226l-6.196-0.094v-0.074c4.387-9.184,7.13-14.977,8.247-17.411c2.06,0.029,3.968,0.42,5.718,1.159
	l-2.464,5.199l1.993,0.024c1.141,0.025,1.834-0.391,2.093-1.252c0.258-0.481,0.475-1.234,0.65-2.268
	c0.027-1.63-1.142-2.678-3.476-3.167c-1.594-0.33-2.936-0.496-4.045-0.517L86.94,0z"/>
<path fill-rule="evenodd" clip-rule="evenodd" fill="#FFFFFF" d="M105.285,0.295l3.816,0.064c5.646,0.086,8.819,0.923,9.536,2.498
	c0.14,0.007,0.258,0.434,0.356,1.304c-0.015,1.098-1.335,4.221-3.975,9.351c0.005,0.09-0.844,1.938-2.534,5.509l-6.202-0.107v-0.076
	l3.409-7.156l-3.441-0.062c-0.158,0.15-1.322,2.559-3.486,7.243l-6.191-0.105l-0.004-0.076c4.383-9.184,7.129-14.981,8.242-17.411
	c2.063,0.035,3.97,0.427,5.711,1.156l-2.444,5.202l3.435,0.054c0.366-0.446,0.733-1.333,1.124-2.639
	c0.064-0.517,0.125-0.819,0.157-0.912c0.028-1.633-1.129-2.689-3.467-3.167c-1.584-0.334-2.934-0.499-4.049-0.513L105.285,0.295z"/>
<path fill-rule="evenodd" clip-rule="evenodd" fill="#FFFFFF" d="M132.173,0.722l6.582,0.104v0.08
	c-1.209,2.466-1.816,3.779-1.816,3.919l-4.979-0.086l-6.809,14.478l-6.204-0.096v-0.076c4.378-9.167,6.646-13.958,6.821-14.399
	l-4.748-0.08c0.483-1.458,1.135-2.387,1.963-2.767C124.508,1.012,127.577,0.647,132.173,0.722"/>
<path fill-rule="evenodd" clip-rule="evenodd" fill="#FFFFFF" d="M141.267,0.862l3.822,0.071c5.636,0.09,8.813,0.923,9.531,2.502
	c0.139,0,0.251,0.434,0.362,1.296c-0.116,0.722-0.285,1.44-0.491,2.122l-6.203-0.107l0.007-0.068
	c0.201-0.604,0.369-1.271,0.484-1.971c0.025-1.636-1.131-2.692-3.461-3.17c-1.593-0.322-2.946-0.495-4.06-0.509L141.267,0.862z
	 M140.784,1.846L140.784,1.846c2.072,0.031,3.974,0.418,5.727,1.159c-1.146,2.269-1.777,3.751-1.91,4.448
	c-0.003,0.502,0.445,0.763,1.368,0.775c4.49,0.079,6.724,0.646,6.709,1.706l-0.012,0.38c0,0.369-1.233,3.131-3.722,8.29
	c-2.063-0.029-3.978-0.418-5.722-1.15c1.145-2.276,1.78-3.755,1.91-4.451c0.007-0.51-0.456-0.772-1.379-0.783
	c-4.483-0.068-6.717-0.638-6.702-1.705l0.016-0.381c-0.004-0.394,0.968-2.58,2.928-6.554C140.525,2.48,140.784,1.91,140.784,1.846z
	 M135.243,13.597L135.243,13.597l6.196,0.106l0.003,0.077c-0.212,0.602-0.385,1.25-0.489,1.966
	c-0.028,1.628,1.128,2.699,3.468,3.167c1.593,0.322,2.938,0.496,4.049,0.51l-0.003,0.15l-3.826-0.049
	c-5.632-0.09-8.813-0.922-9.538-2.508c-0.129,0-0.252-0.43-0.352-1.293C134.862,14.994,135.027,14.276,135.243,13.597z"/>
<path fill-rule="evenodd" clip-rule="evenodd" fill="#FFFFFF" d="M86.148,27.602c0,0.178,0.043,0.322,0.146,0.418
	c0.093,0.102,0.227,0.154,0.385,0.15c0.155,0.008,0.291-0.041,0.391-0.145c0.105-0.082,0.155-0.23,0.159-0.408l0.054-3.623
	l0.805,0.02c0.172-0.004,0.293-0.057,0.379-0.156c0.068-0.09,0.122-0.211,0.122-0.342c0-0.127-0.042-0.238-0.129-0.336
	c-0.089-0.1-0.2-0.156-0.363-0.156l-2.669-0.045c-0.158,0-0.28,0.051-0.374,0.143c-0.082,0.098-0.125,0.211-0.135,0.352
	c0.007,0.117,0.039,0.232,0.11,0.328c0.086,0.109,0.201,0.166,0.377,0.166l0.793,0.012L86.148,27.602z"/>
<path fill-rule="evenodd" clip-rule="evenodd" fill="#FFFFFF" d="M91.479,27.305c-0.311-0.01-0.561-0.1-0.76-0.254
	c-0.197-0.154-0.357-0.359-0.447-0.613c-0.091-0.248-0.14-0.527-0.134-0.826c0.005-0.281,0.054-0.563,0.157-0.811
	c0.109-0.24,0.26-0.453,0.471-0.598c0.203-0.15,0.471-0.23,0.769-0.23c0.303,0.014,0.554,0.1,0.751,0.25
	c0.2,0.158,0.342,0.369,0.449,0.613c0.104,0.252,0.146,0.527,0.137,0.83c0,0.289-0.055,0.566-0.162,0.818
	c-0.104,0.248-0.259,0.439-0.467,0.586C92.043,27.225,91.785,27.299,91.479,27.305 M91.463,28.293L91.463,28.293
	c0.496,0,0.944-0.113,1.31-0.332c0.381-0.225,0.683-0.541,0.895-0.939c0.212-0.385,0.326-0.838,0.337-1.346
	c0.003-0.494-0.101-0.939-0.304-1.344c-0.202-0.4-0.493-0.719-0.866-0.971c-0.365-0.23-0.793-0.357-1.288-0.365
	c-0.495-0.016-0.927,0.105-1.313,0.33c-0.374,0.225-0.665,0.535-0.892,0.926c-0.21,0.395-0.333,0.852-0.338,1.346
	c-0.006,0.502,0.095,0.953,0.292,1.363c0.211,0.396,0.503,0.715,0.861,0.955C90.533,28.16,90.969,28.277,91.463,28.293z"/>
<path fill-rule="evenodd" clip-rule="evenodd" fill="#FFFFFF" d="M95.521,27.754c0.034,0.15,0.105,0.283,0.224,0.391
	c0.117,0.111,0.279,0.168,0.477,0.184c0.184,0,0.338-0.055,0.461-0.154c0.133-0.094,0.225-0.211,0.268-0.363l0.895-2.77l0.007,0.004
	l0.804,2.797c0.047,0.146,0.127,0.271,0.256,0.375c0.121,0.096,0.275,0.154,0.456,0.156c0.2-0.002,0.364-0.061,0.491-0.152
	c0.115-0.115,0.198-0.246,0.24-0.396l0.984-3.918c0.007-0.049,0.021-0.09,0.025-0.123c-0.005-0.031,0.007-0.078,0.007-0.127
	c0-0.119-0.044-0.221-0.134-0.33c-0.093-0.094-0.223-0.148-0.377-0.154c-0.172,0-0.309,0.045-0.394,0.131
	c-0.101,0.086-0.166,0.219-0.19,0.375l-0.671,3.057l-0.015,0.004l-0.896-3.182c-0.041-0.121-0.113-0.23-0.206-0.305
	c-0.097-0.074-0.22-0.119-0.352-0.119c-0.137-0.004-0.259,0.031-0.353,0.113c-0.104,0.066-0.18,0.17-0.221,0.295l-0.996,3.146
	h-0.018l-0.57-3.068c-0.025-0.166-0.082-0.293-0.18-0.387c-0.094-0.084-0.215-0.139-0.396-0.145
	c-0.157,0.006-0.282,0.055-0.381,0.145c-0.083,0.1-0.139,0.205-0.136,0.318c0.008,0.055,0,0.09,0.008,0.121
	c0,0.039,0.004,0.088,0.014,0.125L95.521,27.754z"/>
<path fill-rule="evenodd" clip-rule="evenodd" fill="#FFFFFF" d="M101.843,27.846c0.004,0.188,0.047,0.328,0.143,0.424
	c0.098,0.1,0.23,0.15,0.389,0.154c0.153,0,0.287-0.055,0.391-0.146c0.104-0.082,0.162-0.23,0.166-0.406l0.071-4.094
	c-0.011-0.193-0.054-0.326-0.154-0.42c-0.101-0.102-0.229-0.146-0.392-0.154c-0.161,0-0.279,0.047-0.392,0.139
	c-0.097,0.094-0.15,0.234-0.161,0.414L101.843,27.846z"/>
<path fill-rule="evenodd" clip-rule="evenodd" fill="#FFFFFF" d="M103.946,27.877c-0.005,0.189,0.049,0.33,0.141,0.422
	c0.104,0.104,0.235,0.156,0.395,0.156c0.161,0.006,0.287-0.047,0.391-0.139c0.094-0.094,0.15-0.244,0.164-0.41l0.033-2.691h0.014
	l2.256,3.047c0.062,0.072,0.129,0.131,0.222,0.17c0.084,0.049,0.169,0.068,0.233,0.08c0.165,0,0.299-0.057,0.406-0.141
	c0.104-0.094,0.151-0.24,0.158-0.41l0.068-4.102c0-0.174-0.061-0.318-0.159-0.412c-0.093-0.105-0.222-0.154-0.383-0.154
	c-0.166,0-0.288,0.035-0.389,0.137c-0.101,0.096-0.162,0.234-0.165,0.416l-0.044,2.723h-0.014l-2.261-3.088
	c-0.039-0.063-0.113-0.119-0.205-0.176c-0.09-0.035-0.168-0.066-0.248-0.059c-0.158-0.008-0.291,0.035-0.391,0.129
	c-0.1,0.096-0.158,0.24-0.158,0.414L103.946,27.877z"/>
<path fill-rule="evenodd" clip-rule="evenodd" fill="#FFFFFF" d="M112.208,25.494c-0.143-0.01-0.259,0.043-0.366,0.123
	c-0.09,0.094-0.146,0.203-0.146,0.355s0.036,0.275,0.137,0.367c0.089,0.094,0.201,0.135,0.355,0.146l0.75,0.012
	c-0.012,0.271-0.073,0.492-0.198,0.664c-0.125,0.168-0.287,0.279-0.478,0.354c-0.193,0.068-0.384,0.109-0.577,0.102
	c-0.309-0.004-0.557-0.084-0.766-0.248c-0.204-0.154-0.344-0.363-0.442-0.605c-0.092-0.258-0.143-0.533-0.143-0.822
	c0.007-0.299,0.068-0.574,0.166-0.82c0.113-0.25,0.269-0.447,0.478-0.598c0.2-0.146,0.448-0.229,0.75-0.229
	c0.316,0.021,0.556,0.066,0.711,0.156c0.176,0.086,0.315,0.18,0.426,0.264c0.115,0.076,0.248,0.127,0.411,0.135
	c0.128,0.008,0.232-0.035,0.326-0.125c0.075-0.092,0.128-0.213,0.133-0.373c0-0.162-0.09-0.338-0.27-0.496
	c-0.173-0.15-0.414-0.283-0.719-0.383c-0.291-0.102-0.62-0.146-1.004-0.162c-0.492-0.012-0.928,0.105-1.303,0.322
	c-0.381,0.236-0.679,0.551-0.888,0.936c-0.215,0.4-0.322,0.846-0.337,1.357c-0.015,0.5,0.09,0.941,0.287,1.35
	c0.207,0.398,0.495,0.723,0.861,0.965c0.366,0.227,0.804,0.361,1.307,0.375c0.48,0,0.904-0.094,1.268-0.309
	c0.358-0.201,0.623-0.48,0.829-0.842c0.197-0.367,0.294-0.781,0.309-1.248c0-0.232-0.037-0.408-0.147-0.525
	c-0.094-0.117-0.255-0.176-0.48-0.178L112.208,25.494z"/>
<path fill-rule="evenodd" clip-rule="evenodd" fill="#FFFFFF" d="M118.981,23.422c-0.32-0.004-0.629,0.061-0.901,0.182
	c-0.27,0.133-0.489,0.313-0.656,0.561c-0.177,0.24-0.27,0.527-0.27,0.867c0,0.328,0.089,0.576,0.232,0.777
	c0.166,0.174,0.371,0.318,0.606,0.416c0.229,0.1,0.471,0.186,0.712,0.246c0.238,0.059,0.44,0.141,0.599,0.23
	c0.161,0.092,0.242,0.219,0.242,0.377c0,0.18-0.066,0.334-0.191,0.447c-0.134,0.105-0.312,0.16-0.557,0.16
	c-0.241-0.014-0.456-0.061-0.657-0.15c-0.2-0.09-0.39-0.139-0.56-0.148c-0.15,0-0.27,0.055-0.349,0.148
	c-0.093,0.096-0.139,0.213-0.139,0.354c-0.005,0.227,0.109,0.395,0.322,0.518c0.205,0.119,0.44,0.205,0.714,0.244
	c0.276,0.053,0.51,0.08,0.707,0.076c0.342,0.004,0.657-0.061,0.934-0.186c0.287-0.135,0.509-0.318,0.683-0.574
	c0.169-0.246,0.257-0.537,0.271-0.881c0.011-0.367-0.078-0.66-0.239-0.873c-0.15-0.205-0.352-0.381-0.582-0.479
	c-0.252-0.115-0.485-0.203-0.725-0.27c-0.237-0.068-0.433-0.135-0.593-0.219c-0.158-0.08-0.248-0.186-0.251-0.326
	c0-0.162,0.064-0.268,0.184-0.348c0.117-0.078,0.261-0.125,0.411-0.123c0.216,0.02,0.403,0.059,0.538,0.125
	c0.146,0.072,0.288,0.107,0.436,0.117c0.15,0,0.263-0.055,0.352-0.16c0.09-0.098,0.141-0.227,0.141-0.367
	c-0.008-0.18-0.097-0.338-0.276-0.447c-0.166-0.104-0.367-0.184-0.585-0.221C119.318,23.445,119.132,23.422,118.981,23.422"/>
<path fill-rule="evenodd" clip-rule="evenodd" fill="#FFFFFF" d="M121.589,28.135c0.003,0.176,0.054,0.303,0.151,0.398
	c0.097,0.098,0.229,0.146,0.398,0.154l1.877,0.027c0.165,0,0.298-0.045,0.384-0.145c0.087-0.094,0.128-0.213,0.128-0.338
	c-0.002-0.129-0.032-0.24-0.113-0.346c-0.086-0.096-0.209-0.15-0.388-0.154l-1.349-0.023l0.021-1.111l1.195,0.025
	c0.172-0.002,0.312-0.057,0.396-0.154c0.096-0.096,0.132-0.213,0.132-0.344c0.011-0.121-0.032-0.234-0.111-0.332
	c-0.094-0.105-0.229-0.148-0.402-0.166l-1.195-0.016l0.021-1.051l1.275,0.025c0.172-0.01,0.301-0.055,0.384-0.15
	c0.101-0.104,0.135-0.213,0.135-0.344c0.008-0.133-0.026-0.242-0.113-0.338c-0.086-0.105-0.209-0.16-0.388-0.166l-1.806-0.033
	c-0.189,0.004-0.331,0.061-0.428,0.176c-0.1,0.117-0.14,0.262-0.14,0.445L121.589,28.135z"/>
<path fill-rule="evenodd" clip-rule="evenodd" fill="#FFFFFF" d="M125.365,28.225c-0.007,0.182,0.044,0.322,0.147,0.412
	c0.097,0.1,0.226,0.152,0.38,0.164c0.163-0.004,0.288-0.049,0.397-0.139c0.102-0.094,0.152-0.238,0.155-0.41l0.028-1.578h0.015
	l1.582,1.973c0.06,0.063,0.131,0.115,0.21,0.148c0.078,0.031,0.147,0.039,0.212,0.039c0.169,0,0.294-0.055,0.398-0.162
	c0.093-0.111,0.15-0.236,0.165-0.379c0-0.055-0.021-0.113-0.047-0.164c-0.014-0.049-0.054-0.105-0.094-0.162l-1.224-1.326
	c0.379-0.057,0.707-0.186,0.958-0.414c0.252-0.225,0.392-0.541,0.401-0.928c0.005-0.572-0.143-0.984-0.459-1.244
	c-0.309-0.271-0.75-0.406-1.317-0.412l-1.284-0.023c-0.177,0-0.32,0.045-0.413,0.146c-0.09,0.096-0.151,0.229-0.151,0.408
	L125.365,28.225z M126.519,24.623L126.519,24.623l0.742,0.01c0.201,0.014,0.365,0.059,0.483,0.17
	c0.127,0.117,0.184,0.27,0.184,0.473c0,0.205-0.079,0.363-0.204,0.473c-0.122,0.105-0.279,0.164-0.477,0.164l-0.762-0.02
	L126.519,24.623z"/>
<path fill-rule="evenodd" clip-rule="evenodd" fill="#FFFFFF" d="M130.997,28.461c0.04,0.119,0.104,0.215,0.184,0.295
	c0.069,0.082,0.198,0.119,0.342,0.129c0.161,0,0.283-0.045,0.366-0.111c0.074-0.088,0.139-0.182,0.179-0.297l1.658-3.988
	c0.021-0.051,0.04-0.096,0.044-0.135c0.012-0.035,0.012-0.088,0.012-0.135c0-0.15-0.048-0.273-0.167-0.371
	c-0.106-0.094-0.229-0.15-0.381-0.156c-0.122,0.004-0.229,0.035-0.309,0.098c-0.079,0.066-0.143,0.148-0.19,0.254l-1.177,2.975
	l-1.076-3.016c-0.04-0.102-0.104-0.191-0.19-0.248c-0.079-0.074-0.173-0.113-0.296-0.119c-0.153,0-0.283,0.051-0.394,0.141
	c-0.108,0.1-0.172,0.227-0.179,0.373c-0.005,0.045,0.003,0.096,0.003,0.139c0.016,0.041,0.024,0.086,0.05,0.129L130.997,28.461z"/>
<path fill-rule="evenodd" clip-rule="evenodd" fill="#FFFFFF" d="M134.434,28.371c0.008,0.182,0.049,0.311,0.15,0.424
	c0.096,0.092,0.226,0.15,0.38,0.15c0.155,0,0.292-0.053,0.398-0.145c0.104-0.092,0.155-0.229,0.166-0.412l0.062-4.102
	c0-0.17-0.055-0.32-0.148-0.416c-0.104-0.092-0.229-0.146-0.392-0.146c-0.157,0-0.282,0.043-0.395,0.137
	c-0.1,0.094-0.153,0.236-0.158,0.418L134.434,28.371z"/>
<path fill-rule="evenodd" clip-rule="evenodd" fill="#FFFFFF" d="M136.41,26.348c0,0.508,0.094,0.957,0.302,1.369
	c0.204,0.398,0.488,0.717,0.861,0.949c0.367,0.236,0.8,0.365,1.292,0.377c0.187,0,0.409-0.006,0.663-0.055
	c0.256-0.037,0.475-0.127,0.676-0.25c0.191-0.111,0.302-0.291,0.313-0.518c0-0.104-0.032-0.201-0.112-0.305
	c-0.071-0.123-0.193-0.184-0.359-0.197c-0.097,0.004-0.2,0.029-0.297,0.074c-0.104,0.053-0.227,0.094-0.355,0.139
	c-0.141,0.059-0.313,0.072-0.511,0.066c-0.297,0-0.542-0.082-0.753-0.23c-0.197-0.143-0.338-0.332-0.446-0.586
	c-0.096-0.227-0.15-0.5-0.14-0.787c0-0.301,0.064-0.572,0.169-0.818c0.098-0.24,0.265-0.438,0.459-0.582
	c0.213-0.148,0.459-0.213,0.765-0.215c0.289,0.01,0.518,0.057,0.668,0.133c0.153,0.082,0.305,0.117,0.438,0.133
	c0.129,0,0.24-0.047,0.326-0.133c0.083-0.098,0.133-0.213,0.13-0.342c0.003-0.215-0.102-0.379-0.276-0.496
	c-0.188-0.123-0.389-0.205-0.633-0.26c-0.236-0.047-0.456-0.076-0.642-0.08c-0.499,0-0.938,0.121-1.311,0.338
	c-0.381,0.225-0.667,0.539-0.891,0.926C136.532,25.393,136.424,25.85,136.41,26.348"/>
<path fill-rule="evenodd" clip-rule="evenodd" fill="#FFFFFF" d="M141.43,28.455c0.011,0.16,0.058,0.299,0.154,0.398
	c0.116,0.098,0.244,0.139,0.406,0.148l1.873,0.037c0.184-0.004,0.313-0.051,0.396-0.154c0.086-0.096,0.129-0.207,0.132-0.334
	c0-0.131-0.043-0.252-0.12-0.342c-0.088-0.107-0.213-0.152-0.389-0.17l-1.343-0.014l0.015-1.117l1.185,0.023
	c0.18-0.002,0.315-0.045,0.398-0.15c0.097-0.094,0.147-0.203,0.147-0.338c0-0.125-0.04-0.23-0.123-0.344
	c-0.089-0.098-0.215-0.146-0.394-0.146l-1.2-0.029l0.014-1.041l1.29,0.01c0.172,0,0.298-0.049,0.388-0.139
	c0.086-0.111,0.129-0.217,0.129-0.338c0.015-0.135-0.04-0.248-0.117-0.355c-0.085-0.092-0.217-0.146-0.389-0.146l-1.802-0.037
	c-0.183-0.008-0.335,0.055-0.428,0.162c-0.101,0.123-0.15,0.273-0.147,0.453L141.43,28.455z"/>
<polygon fill-rule="evenodd" clip-rule="evenodd" fill="#FFFFFF" points="77.68,20.564 154.069,21.779 154.06,22.783 77.661,21.564 
	"/>
<rect x="77.535" y="29.715" transform="matrix(-0.9999 -0.016 0.016 -0.9999 230.9695 62.2799)" fill-rule="evenodd" clip-rule="evenodd" fill="#FFFFFF" width="76.397" height="1.008"/>
<path fill-rule="evenodd" clip-rule="evenodd" fill="#1075BB" d="M34.27,19.453l0.468,0.021c0.8,0.01,1.586,1.068,1.573,1.666
	c0,0.33,0.008,0.434-0.058,0.471l0.054,0.051c-0.042,0.043-0.033,0.025-0.042,0.1c-0.004,0.188-0.484,0.758-0.539,0.834
	c-0.273,0.348-0.758,0.484-1.209,0.547l-0.049-0.055c-0.104,0.133-0.07,0.055-0.179,0.049c-0.787-0.016-1.35-0.895-1.562-1.117
	l0.062-0.059c-0.041,0.018-0.041-0.051-0.116-0.119l0.07-0.059c-0.083-0.059-0.141-0.398-0.149-0.465
	c0-0.537,0.485-1.826,1.487-1.816C34.158,19.508,34.195,19.457,34.27,19.453 M60.5,19.844L60.5,19.844
	c0.07,0.008,0.256,0.033,0.318,0.033c0.084,0,0.138,0.008,0.146,0.084c0,0,0.146,0.051,0.427,0.172
	c0.194,0.074,0.943,0.684,0.928,1.338c-0.004,0.072,0.059,0.154,0.059,0.23c-0.005,0.178-0.107,0.588-0.217,0.678l0.046,0.041
	c-0.241,0.605-1.026,1.145-1.655,1.133L60.5,23.498c-0.05,0.014-0.395,0.063-0.395-0.047c0-0.01-0.67-0.168-1.337-1.021l0.063-0.061
	c-0.075-0.027-0.154-0.25-0.142-0.316c-0.004-0.07-0.065-0.34-0.07-0.406C58.641,20.711,59.568,19.826,60.5,19.844z M60.063,18.58
	L60.063,18.58l0.93,0.018c0.075-0.006,0.465,0.041,0.465,0.113c0,0.006,0.555,0.287,0.865,0.404
	c0.055,0.057,0.137,0.156,0.223,0.178c0.209,0.129,0.569,0.674,0.797,0.918l-0.063,0.072c0.025,0.023,0.096,0.074,0.096,0.148
	c-0.021,0.07,0.033,0.053,0.065,0.035l-0.045,0.063c0.137,0.186,0.19,0.498,0.272,0.752l-0.063,0.07l0.067,0.045l-0.067,0.072
	c0.029,0.141,0.063,0.178,0.067,0.281c-0.005,0.102-0.041,0.156-0.07,0.297l0.062,0.055c-0.111,0.15-0.087,0.295-0.094,0.436
	c-0.006,0.145-0.494,0.92-0.507,0.961c-0.248,0.494-1.02,0.85-1.342,1.156c-0.249,0-0.882,0.195-1.259,0.195
	c-0.087-0.008-0.675-0.021-0.675-0.096c0,0-0.849-0.336-1.284-0.584c-0.498-0.295-1.131-1.4-1.177-2.236
	c0.038-0.027,0.038-0.043,0.013-0.523c0.033-0.031,0.038-0.092,0.049-0.111l-0.046-0.061c0.063-0.045,0.089-0.242,0.097-0.377
	c0.004-0.301,0.589-1.027,0.608-1.162c0.373-0.42,0.865-0.664,1.11-0.9C59.361,18.82,59.805,18.58,60.063,18.58z M33.959,18.166
	L33.959,18.166l1.056,0.023c0.075-0.004,0.401,0.031,0.401,0.1c0,0.041,0.265,0.072,0.924,0.477
	c0.563,0.385,0.654,0.754,1.068,1.281l-0.054,0.055c0.059,0.02,0.096,0.078,0.092,0.152c0,0.084,0.157,0.697,0.219,0.883
	l-0.063,0.057c0.058,0.045,0.03,0.137,0.087,0.203l-0.058,0.068l0.049,0.041c-0.269,1.805-1.792,2.982-3.33,2.953
	c-0.075,0.01-0.601-0.045-0.601-0.123c0,0-0.634-0.145-1.337-0.643c-0.244-0.166-1.068-1.223-1.064-1.955
	c0.005-0.076-0.054-0.549-0.054-0.619c0.013-0.072,0.037-0.363,0.037-0.434c0.009-0.07,0.104-0.254,0.1-0.324
	c0.016-0.432,0.974-1.475,1.052-1.553C32.658,18.734,33.603,18.158,33.959,18.166z M62.432,18.473L62.432,18.473
	c0.989,0.045,1.191,0.045,1.271,0.049c0.178-0.004,2.037,0.779,2.774,0.979c0.021,0.229,0.07,0.555,0.066,0.633
	c0.004,0.07-0.025,0.15-0.054,0.229l0.054,0.07l-0.063,0.053l0.063,0.055l-0.054,0.068l0.046,0.043l-0.046,0.066l0.079,0.088
	c-0.066,0.053-0.13,0.314-0.13,0.314c0.005,0.084,0.019,0.051,0.051,0.037c-0.013,0.037-0.017,0.088-0.046,0.117l0.066,0.057
	c-0.145,0.199-0.277,0.553-0.385,0.82c0,0,0.021-0.027-0.066-0.027c-0.07,0-0.195,0.092-0.299,0.082
	c-1.334,0.006-1.213-0.285-1.404,0.043c-0.103-0.061-0.194-0.064-0.223-0.092c-0.021-0.041-0.025-0.109-0.025-0.158l-0.063-0.07
	c0,0,0.066,0.051,0.063-0.029c0-0.07-0.063-0.008-0.063-0.078c0-0.082,0.063-0.014,0.097-0.033l-0.079-0.1
	c0.045,0.029,0.045,0,0.079-0.01c-0.034-0.027-0.038-0.053-0.07-0.035c0.016-0.037,0.016-0.037,0.07-0.082l-0.083-0.105
	c0.032-0.033,0.053-0.004,0.062-0.076c0.009-1.008-1.177-2.314-1.288-2.402s-0.455-0.348-0.551-0.4
	C62.302,18.525,62.372,18.473,62.432,18.473z M62.828,12.184L62.828,12.184c0.828,0.021,1.512,0.672,1.504,1.48
	c-0.014,0.737-0.572,1.495-1.521,1.483c-0.189,0-0.799-0.141-0.799-0.316c0.008-0.104-0.676-0.26-0.662-1.25
	C61.365,12.814,62.053,12.176,62.828,12.184z M48.7,11.973L48.7,11.973c0.775,0.005,1.478,0.664,1.453,1.492
	c0,0.071-0.027,0.215-0.027,0.303c-0.01,0.845-1.152,1.156-1.566,1.152c-0.074,0-0.22,0-0.216-0.079
	c0-0.013-1.023-0.456-1.023-0.799c0.005-0.121-0.136-0.324-0.136-0.625C47.192,12.574,47.846,11.957,48.7,11.973z M48.676,11.27
	L48.676,11.27c0.073,0,0.629,0.027,0.629,0.103c0,0.009,0.29,0.161,0.637,0.29c0.366,0.277,0.729,0.774,0.902,1.467l-0.065,0.042
	c0.063,0.065,0.065,0.173,0.05,0.248c0.016,0.066-0.024,0.148-0.063,0.236l0.067,0.054c-0.145,0.97-1.155,1.985-2.162,1.852
	L48.6,15.625l-0.048-0.071l-0.066,0.063c-0.225-0.151-1.032-0.275-1.036-0.412c0-0.057-0.912-0.716-0.886-1.383
	c0-0.075-0.084-0.303-0.084-0.385c0.005-0.067,0.096-0.601,0.092-0.671C46.588,11.907,48.058,11.256,48.676,11.27z M62.844,11.471
	L62.844,11.471c0.07,0,0.225,0.034,0.295,0.034c0.318,0,0.809,0.343,0.948,0.386c0.601,0.509,0.929,0.994,0.911,1.728
	c0,0.074-0.033,0.302-0.033,0.38c0.004,0.062-0.033,0.087-0.053,0.109l0.053,0.056c-0.202,0.537-0.377,0.839-0.936,1.336
	c-0.212,0.092-0.34,0.042-0.448,0.238c-0.211,0-0.456,0.023-0.65,0.049l-0.065,0.057l-0.058-0.053l-0.063,0.053l-0.054-0.053
	l-0.07,0.053c-0.146-0.115-0.406-0.127-0.564-0.156c-0.173-0.126-0.318-0.153-0.463-0.24c-0.312-0.324-0.912-0.834-0.902-1.642
	c0.016-0.067-0.042-0.128-0.038-0.2c-0.004-0.066,0.178-0.803,0.173-0.878c0.005-0.182,0.719-0.763,0.867-0.94
	C61.746,11.77,62.65,11.455,62.844,11.471z M33.347,8.596L33.347,8.596c0.069,0,0.107,0.062,0.177,0.062l2.76,0.038
	c0.079,0.02,0.111-0.041,0.185-0.051c0.071,0,0.071,0.038,0.146,0.035c0.071,0,0.12,0.177,0.128,0.252
	c0,0.079-0.041,0.398-0.079,1.101c0,0.034-0.024,0.047-0.058,0.068l0.058,0.054c-0.058,0.291-0.173,1.395-0.173,1.84
	c-0.004,0.054-0.079,0.26-0.095,0.248l0.062,0.071l-0.07,0.062l0.065,0.054c-0.136,0.273-0.331,0.482-0.331,0.498
	c-0.009,0.009-0.878,0.61-1.375,0.704c-0.311,0.236-0.903,0.527-1.347,0.519c-0.228,0-0.351,0.042-0.667-0.095l-0.065,0.05
	l-0.071-0.05l-0.041,0.054l-0.062-0.054l-0.054,0.054l-0.062-0.058l-0.063,0.054l-0.054-0.054l-0.066,0.054l-0.062-0.063
	l-0.054,0.058l-0.062-0.058l-0.055,0.058l-0.065-0.055l-0.059,0.055l-0.063-0.066l-0.049,0.066l-0.066-0.066l-0.053,0.066
	l-0.063-0.07l-0.054,0.066l-0.058-0.066l-0.062,0.066l-0.059-0.066l-0.062,0.058l-0.058-0.058l-0.058,0.058l-0.063-0.054
	c-0.079,0.082-0.232,0.05-0.344,0.05c-0.472-0.005-0.724-0.119-0.724-0.522c0-0.079,0.098-0.394,0.103-0.464
	c0-0.079,0.149-0.311,0.149-0.381c0.004-0.216,1.275-2.896,1.689-3.522c0.294-0.439,0.787-0.556,1.103-0.538
	C33.123,8.655,33.271,8.596,33.347,8.596z M33.416,7.872L33.416,7.872c0.043,0.037,0.013,0.049,0.088,0.049
	c0.066,0.013,0.041,0,0.025-0.029c0.046,0.018,0.016,0.029,0.09,0.042c0.075,0,0.05-0.013,0.026-0.046
	c0.049,0.021,0.079,0.008,0.049,0.05l3.715,0.059c0,0,0.029-0.009,0.008-0.054c0.038,0.02,0.021,0.045,0.091,0.054
	c0.074,0,0.046-0.005,0.033-0.054c0.034,0.02,0.009,0.054,0.084,0.049c0.07,0.005,0.049,0.005,0.032-0.038l0.055,0.043l0.057-0.051
	l0.067,0.051l0.053-0.051l0.067,0.051c0.128,0.012,0.086,0.012,0.265,0.003c0.012,0,0.074,0.05,0.133-0.057
	c0.045,0.045,0.099,0.066,0.128,0.057c0.824,0.017,0.865-0.008,0.94-0.008c0.36,0.017,0.431,0.423,0.501,0.737L39.865,8.77
	l0.062,0.067L39.87,8.886c0.087,0.12,0.074,0.315,0.074,0.505c-0.033,1.359-0.05,1.588-0.054,1.658c0,0.053-0.066,0.245-0.066,0.302
	c0,0.075,0.063,0.096,0.058,0.182c0,0.051-0.065,0.133-0.065,0.22c-0.008,0.622,0.024,0.692,0.021,0.762
	c0,0.075,0.028,0.045,0.057,0.086l-0.057,0.059c0.028,0.016,0.049,0.054,0.053,0.125l-0.071,3.841
	c0.004,0.076-0.053,0.117-0.049,0.188l-0.008,0.406c0,0.041,0.041,0.195,0.108,0.227l-0.054,0.07
	c0.049,0.047,0.086,0.076,0.091,0.146c-0.013,0.125,0.513,0.471,0.733,0.459l18.133,0.328c-0.68,0.336-1.762,1.688-1.781,2.406
	c0,0.004-0.096,0.531-0.1,0.672c-0.008,0.068-0.038,0.1-0.058,0.117l0.058,0.059l-0.058,0.061c0.02,0.021,0.062,0.063,0.058,0.141
	c-0.008,0.113-0.235,0.217-0.314,0.213c-0.076,0.004-0.542-0.1-0.621-0.088l-7.767-0.125c-0.128,0-0.526,0.021-0.53,0.059
	c0.004-0.07-0.129-0.021-0.216-0.059l-8.557-0.156c-0.104,0.066-0.385-0.033-0.456,0.074l-0.051-0.059
	c-0.02,0.033-0.041,0.063-0.124,0.059c-0.07,0-0.123-0.055-0.193-0.07l0.036-0.551c-0.016-0.229-0.098-0.633-0.098-0.711
	c0.008-0.621-1.035-1.775-1.082-1.809c-0.103-0.113-1.206-0.9-1.74-0.902c-0.082-0.01-0.244-0.064-0.31-0.064l-0.816-0.014
	c-0.116,0-0.431,0.086-0.431,0.119c0,0.016-0.29,0.086-0.447,0.107c-0.634,0.09-1.744,1.105-2,1.781l0.063,0.064
	c-0.257,0.287-0.345,0.59-0.336,0.953c0,0.08-0.104,0.432-0.1,0.506c-0.004,0.076,0.054,0.102,0.051,0.162l0.003,0.254
	c-0.041,0-0.136-0.039-0.182,0.07c-0.737-0.16-1.884-0.27-2.345-0.668c-0.231-0.115-0.434-0.773-0.421-1.156
	c0.004-0.07-0.083-0.484-0.083-0.563l0.005-0.404c0.008-0.395,0.298-0.582,0.31-1.076c-0.004-0.01,0.232-1.422,0.24-1.813
	c0-0.021,0.096-0.37,0.096-0.492c0-0.295,0.642-1.822,0.646-1.952c-0.003-0.024,0.452-0.882,0.576-1.165
	c0.256-0.618,0.857-1.806,0.861-1.881c-0.003-0.142,0.774-1.609,1.073-1.994c0.095-0.112,0.282-0.228,0.282-0.291
	c0.012-0.272,1.334-0.348,1.442-0.348L33.416,7.872z M56.006,7.644L56.006,7.644c0.268,0.058-0.398,0.058,0.803,0.037
	c0.029,0.029,0.087,0.037,0.115,0.059l0.063-0.059l0.053,0.059l0.063-0.054l0.058,0.063c0.157-0.087,0.519-0.087,0.7-0.083
	c0.078,0.008,0.357,0.096,0.535,0.096c0.617,0.044,0.928,0.079,0.998,0.079c0.063,0,0.816,0.104,0.819,0.177
	c-0.003,0.013,3.389,0.789,3.384,1.289c0,0.303-1.171,0.324-1.4,0.369l-0.057-0.062c0,0-0.018,0,0.012,0.042l-3.371,0.02
	c-0.335,0.116-0.744,0.026-1.13,0.109L57.601,9.71c0,0-0.028,0.005,0.005,0.05l-2.66,0.037c-0.154-0.012-0.415-0.07-0.592,0.042
	l-0.063-0.066c-0.302,0.092-2.915,0.047-3.329,0.154c-0.03-0.035-0.046-0.035-0.646-0.01c-0.039-0.032-0.083-0.015-0.138-0.027
	c-0.033,0.02-0.095-0.033-0.115-0.067c0,0.045-0.042,0.045-0.062,0.116c-0.042,0.008-0.024-0.054-0.092-0.054
	c-0.079-0.008-0.057,0.024-0.095,0.058l-0.046-0.066c0,0-0.033,0.013,0.012,0.053l-1.11-0.013l-0.104-0.068
	c0.498-0.443,0.908-0.518,1.496-0.713c1.926-0.83,3.839-1.388,5.877-1.434L56.006,7.644z M56.055,7.121L56.055,7.121l2.196,0.063
	c2.3,0.038,6.772,1.69,8.159,2.47c0.125,0.107,0.49,0.475,0.663,0.642c0.032,0.12,0.468,0.829,0.478,1.114
	c-0.006,0.08,0.048,0.117,0.048,0.178c-0.037,0.971-0.082,1.373-0.073,1.446c-0.009,0.075-0.047,0.105-0.063,0.133l0.049,0.046
	c-0.053,0.062-0.178,0.559-0.182,0.7c-0.014,0.642-1.578,0.68-1.807,0.745l-0.049-0.063l-0.054,0.059h-0.313
	c0.007-0.045-0.027-0.028-0.031-0.103c0-0.075,0.038-0.101,0.096-0.142l-0.063-0.066c0.07-0.078,0.137-0.277,0.133-0.402v-0.525
	c-0.008-0.068-0.078-0.328-0.111-0.345c0,0,0.028,0.013,0.028-0.065c0.005-0.385-0.836-1.202-0.981-1.306
	c-0.133-0.207-0.993-0.339-1.205-0.496c-0.024,0.024-0.053,0.024-0.037,0.069c-0.037-0.016-0.037-0.016-0.088-0.069
	c-0.016,0.021-0.049,0.024-0.02,0.066c-0.051-0.013-0.029-0.042-0.104-0.042c-0.018,0-0.037,0.013-0.037,0.042
	c-0.009-0.076-0.066-0.018-0.137-0.018c-1.359-0.017-2.129,1.504-2.143,2.346c-0.004,0.327,0.066,0.891,0.312,1.085l-0.066,0.054
	l0.066,0.07c-0.141,0.149-0.19,0.1-0.239,0.104l-0.692-0.024c-0.075,0-0.083,0.024-0.129,0.059l-0.054-0.059l-0.059,0.062
	c-0.145-0.083,0.182-0.028-1.589-0.095l-0.06-0.037c-0.011,0.012-0.055,0.024-0.029,0.066c-0.036-0.024-0.036-0.024-0.086-0.082
	c-0.021,0.023-0.058,0.037-0.037,0.074c-0.029-0.021-0.029-0.021-0.088-0.07c-0.016,0.02-0.045,0.02-0.016,0.065
	c-0.042-0.017-0.042-0.017-0.096-0.065c-0.025,0.023-0.049,0.023-0.025,0.065l-0.074-0.05c0.051,0.008,0.063-0.016,0.091-0.033
	c-0.045-0.021-0.616-0.059-0.69-0.059c-0.188-0.011-0.505-0.016-0.564,0.076c0,0,0-0.055-0.079-0.055l-0.915-0.021
	c-0.075,0-0.112,0.063-0.183,0.059c-0.07,0.004-0.131,0-0.174-0.063l-0.078,0.066l0.029-0.054l-4.031-0.073
	c-0.003-0.076,0-0.179-0.003-0.25c0-0.07,0.244-0.613,0.249-0.982c0.003-0.083-0.079-0.563-0.075-0.635
	c0.013-0.493-0.688-1.134-0.911-1.275c-0.303-0.332-0.952-0.319-1.276-0.539c-0.024,0.025-0.052,0.029-0.037,0.063
	c-0.034-0.017-0.034-0.017-0.086-0.071c-0.013,0.022-0.051,0.042-0.038,0.075c-0.034-0.021-0.005-0.041-0.084-0.051
	c-0.024-0.007-0.04,0.017-0.04,0.047c0.004-0.071-0.063-0.017-0.137-0.017c-0.898-0.013-2.146,1.106-2.162,2.109
	c-0.003,0.074,0.021,0.053,0.054,0.099c-0.076,0.066-0.058,0.111-0.058,0.166c0,0.013-0.018,0.133,0.049,0.178l-0.059,0.062
	c0.035,0.158,0.113,0.345,0.113,0.521c0,0.076,0.149,0.246,0.168,0.359l-0.062,0.069c-0.269-0.016-2.174-0.154-2.17-0.374
	c0-0.008-0.368-0.526-0.376-0.857c0.003-0.071-0.079-0.364-0.075-0.424l0.013-0.596c0.008-0.729,0.754-1.38,0.754-1.388
	c0-0.369,4.125-1.869,5.964-2.623C52.449,7.593,54.179,7.221,56.055,7.121z M42.565,6.785L42.565,6.785
	c0.236,0,0.415,0.343,0.415,0.493c-0.003,0.381,0.365,4.728,0.493,6.018l-0.058,0.069c0.087,0.315,0.12,0.734,0.104,1.103
	c0,0.07,0.137,0.541,0.137,0.617c-0.012,0.248,0.609,0.561,0.812,0.576c1.052,0.051,2.419,0.111,3.583,0.129l15.192,0.241
	c0.065,0.004,0.406,0.01,0.604-0.004c1.638,0.787,3.381,1.285,4.951,2.063c-0.009,0.051,0.023,0.148,0.055,0.232
	c-0.027,1.17-0.055,1.203-0.055,1.234c-0.03,0.059-0.03,0.109-0.037,0.207c-0.066,0.012-0.108,0.043-0.18,0.029
	c-0.504-0.004-1.291-0.393-1.809-0.572c-2.945-1.371-3.649-1.154-6.416-1.188L59.353,18c-0.074,0.008-10.781-0.166-16.169-0.248
	c-0.824-0.018-1.678-0.014-2.478-0.059c-0.376-0.041-0.467-0.613-0.467-0.895l0.161-10.05L42.565,6.785z M35.578,6.321L35.578,6.321
	l1.367,0.054c0.141,0.038,0.211,0.233,0.219,0.336c-0.012,0.277-0.298,0.46-0.77,0.423l-2.299-0.079c-0.033-0.095-0.008-0.2,0-0.27
	c-0.008-0.074,0.125-0.194,0.214-0.253c0.457-0.318,0.328-0.161,0.688-0.161C35.082,6.366,35.384,6.347,35.578,6.321z M34.679,5.936
	L34.679,5.936c2.328,0.025,2.453,0.063,2.531,0.075c0.041,0.016,0.07,0.012,0.045,0.028c0.369,0.324,0.426,1.394,0.424,1.554
	c0.002,0.154-0.035,0.083-0.139,0.192c-0.037-0.038-0.074-0.051-0.144-0.067c-0.07,0-0.045,0.013-0.038,0.05
	c-0.033-0.021-0.008-0.05-0.083-0.05c-0.024,0.008-0.041,0.03-0.041,0.046c0-0.071-0.083-0.038-0.171-0.046
	c-0.065,0-0.065,0.062-0.144,0.059c-0.075,0-0.063-0.059-0.133-0.059c-0.074,0.008-0.037,0.008-0.003,0.042
	c-0.07,0.02-0.038-0.034-0.121-0.045c-0.065,0-0.049,0.053-0.128,0.062c-0.07-0.013-0.311-0.1-0.381-0.1l-2.116-0.038
	c-0.013,0.025-0.079,0.021-0.075,0.087c-0.083-0.028-0.144,0-0.19-0.062L33.71,7.726c-0.013-0.07-0.07-0.066-0.136-0.133
	c0.07-0.231,0.136-0.688,0.127-0.762c0.012-0.07,0.049-0.099,0.062-0.107L33.71,6.657C34.033,6.342,34.261,5.994,34.679,5.936z"/>
</svg>
